<svg width="22" height="14" viewBox="0 0 22 14" fill="none" xmlns="http://www.w3.org/2000/svg">
<path fill-rule="evenodd" clip-rule="evenodd" d="M1.40676 8.05797C0.822094 7.47247 0.822094 6.52767 1.40676 5.94217C3.21819 4.12784 6.75152 0.589028 7.04048 0.300068C7.43048 -0.0899316 8.07048 -0.0899316 8.46048 0.300068C8.85048 0.690068 8.85048 1.32007 8.46048 1.71007L5.74377 4.42678C5.20938 4.96117 4.61701 5.43237 3.97627 5.83317L3.6336 6.04747L3.84166 6.25407C4.57542 6.08547 5.32665 6.00007 6.08109 6.00007H20.0029C20.5552 6.00007 21.0029 6.44777 21.0029 7.00007C21.0029 7.55237 20.5552 8.00007 20.0029 8.00007H6.08109C5.32665 8.00007 4.57542 7.91467 3.84166 7.74607L3.6336 7.95267L3.97627 8.16697C4.61701 8.56777 5.20938 9.03897 5.74377 9.57337L8.46048 12.2901C8.85048 12.6801 8.85048 13.3101 8.46048 13.7001C8.07048 14.0901 7.43048 14.0901 7.04048 13.7001C6.75152 13.4111 3.2182 9.87227 1.40676 8.05797Z" fill="black"/>
</svg>
