<svg width="24" height="17" viewBox="0 0 24 17" fill="none" xmlns="http://www.w3.org/2000/svg">
<path fill-rule="evenodd" clip-rule="evenodd" d="M0 11.5C0 14.5376 2.46243 17 5.50392 17L19.0364 16.9953C19.1074 16.9984 19.1786 17 19.25 17C21.8734 17 24 14.8734 24 12.25C24 9.6964 21.985 7.6135 19.4582 7.5045C19.486 7.2553 19.5 7.0035 19.5 6.75C19.5 3.02208 16.4779 0 12.75 0C9.26664 0 6.39955 2.63857 6.03836 6.02608C5.86032 6.00875 5.6807 6 5.5 6C2.46243 6 0 8.4624 0 11.5ZM19.1096 14.9965L19.0594 14.9953L5.5 15C3.567 15 2 13.433 2 11.5C2 9.567 3.567 8 5.5 8C5.90968 8 6.30833 8.07 6.68435 8.2052C7.37156 8.4522 8.08323 7.9033 8.01877 7.1759C8.00628 7.035 8 6.89294 8 6.75C8 4.12665 10.1266 2 12.75 2C15.3734 2 17.5 4.12665 17.5 6.75C17.5 7.2937 17.409 7.8236 17.2331 8.3245C16.9625 9.0951 17.6797 9.8476 18.4624 9.6142C18.7153 9.5388 18.9795 9.5 19.25 9.5C20.7688 9.5 22 10.7312 22 12.25C22 13.7688 20.7688 15 19.25 15C19.203 15 19.1562 14.9988 19.1096 14.9965Z" fill="black" fill-opacity="0.6"/>
</svg>
