<?xml version="1.0" encoding="UTF-8" standalone="no"?>
<svg
   width="50"
   height="50"
   version="1.1"
   id="svg2"
   sodipodi:docname="COLD.svg"
   inkscape:version="1.4 (86a8ad7, 2024-10-11)"
   xmlns:inkscape="http://www.inkscape.org/namespaces/inkscape"
   xmlns:sodipodi="http://sodipodi.sourceforge.net/DTD/sodipodi-0.dtd"
   xmlns="http://www.w3.org/2000/svg"
   xmlns:svg="http://www.w3.org/2000/svg">
  <defs
     id="defs2" />
  <sodipodi:namedview
     id="namedview2"
     pagecolor="#ffffff"
     bordercolor="#000000"
     borderopacity="0.25"
     inkscape:showpageshadow="2"
     inkscape:pageopacity="0.0"
     inkscape:pagecheckerboard="0"
     inkscape:deskcolor="#d1d1d1"
     inkscape:zoom="8"
     inkscape:cx="12.375"
     inkscape:cy="49.9375"
     inkscape:window-width="1920"
     inkscape:window-height="1111"
     inkscape:window-x="1014"
     inkscape:window-y="2151"
     inkscape:window-maximized="1"
     inkscape:current-layer="svg2" />
  <g
     id="g1">
    <title
       id="title1">background</title>
    <rect
       fill="none"
       id="canvas_background"
       height="62"
       width="62"
       y="-1"
       x="-1" />
  </g>
  <g
     id="g2"
     transform="matrix(0.83267304,0,0,0.83267304,0.05955695,-0.06818895)">
    <title
       id="title2">Layer 1</title>
    <g
       transform="matrix(0.01060071,0,0,-0.01060314,2.1409472,137.85986)"
       fill="#0066db"
       id="svg_1">
      <path
         d="m 2543.2408,12970.712 c -63,-38 -69,-57 -69,-238 0,-89 -3,-161 -6,-161 -3,0 -31,21 -62,46 -73,60 -94,67 -135,50 -54,-22 -87,-70 -87,-124 v -47 l 145,-145 146,-146 -3,-96 -3,-96 -138,104 c -120,91 -142,104 -177,104 -21,0 -50,-5 -64,-11 -46,-22 -71,-108 -43,-155 7,-11 105,-105 220,-208 l 207,-188 v -74 c 0,-58 -3,-73 -12,-68 -7,4 -106,70 -220,146 -142,94 -216,138 -235,138 -38,0 -89,-33 -108,-69 -19,-38 -57,-193 -89,-370 -14,-73 -27,-135 -28,-137 -2,-1 -28,18 -57,44 l -53,47 22,287 c 23,309 21,342 -23,373 -12,9 -43,15 -73,15 -106,0 -133,-60 -159,-353 l -7,-67 -71,63 -71,64 3,220 c 3,219 2,220 -21,248 -18,20 -36,28 -71,32 -93,11 -132,-26 -157,-148 l -15,-77 -122.00004,114 -123,114 H 720.2408 c -54,0 -69,-4 -94,-25 -34,-28 -62,-82 -62,-118 0,-33 39,-88 138,-196 45,-49 81.99996,-92 81.99996,-95 0,-3 -18.99996,-6 -41.99996,-6 -59,-1 -123,-32 -142,-69 -34,-64 -11,-162 42,-182 18,-7 84,-7 209.99996,1 l 183.00004,11 67,-59 c 119,-105 118,-98 5,-111 -218.00004,-27 -273.00004,-55 -273.00004,-137 0,-56 42,-131 78,-141 13,-3 137.00004,8 275.00004,24 l 252,30 50,-48 c 27,-27 46,-51 43,-55 -4,-3 -57,-14 -120,-25 -257,-44 -361,-81 -385,-137 -21,-51 -10,-89 55,-183 32,-46 102,-148 155,-226 l 97,-143 -77,1 h -78 l -203.00004,234 c -219.99996,255 -227.99996,261 -306.99996,235 -45,-15 -65,-52 -65,-122 0,-53 1,-55 116,-198 l 114.99996,-145 -94.99996,-3 -95,-3 -163,166 c -145,147 -167,165 -196,165 -67,0 -130,-54 -139,-117 -5,-37 -1,-44 67,-126 l 71,-87 H 93.240799 c -180,0 -193.999999,-1 -230.999989,-22 -50,-28 -68,-63 -68,-128 0,-58 18,-99 56,-129 24.99999,-19 39.99999,-21 189.999989,-21 90.000001,0 164.000001,-3 164.000001,-6 0,-3 -14,-25.0001 -31,-49.0001 -29,-40 -31,-49 -27,-106 6,-78 35,-109 101,-109 41,0 47,4 177,135 l 135,135.0001 h 107 c 60,0 107.99996,-3 107.99996,-6 0,-4 -21.99996,-36.0001 -48.99996,-73.0001 -85,-117 -121,-175 -121,-199 0,-34 41,-90 78,-108 74,-35 122.99996,2 346,269 l 98,117.0001 h 65 c 53,0 64,-3 59,-15.0001 -3,-8 -53,-90 -112,-182 -59,-92 -111,-180 -116,-194 -15,-43 12,-94 63,-120 56,-28 229,-71 401,-99 l 137,-23 -47,-54 -47,-55 -100,6 c -55,4 -185,14 -290,22 -208.00004,17 -246.00004,14 -281.00004,-21 -35,-35 -35,-125 0,-160 35,-35 144.00004,-63 359.00004,-90 l 47,-6 -60,-67 -60,-67 -233.00004,4 -233.99996,3 -26,-32 c -21,-24 -27,-42 -27,-78 0,-95 58,-142 173.99996,-142 36,0 66,-3 66,-7 0,-5 -51,-62 -111.99996,-128 -147,-159 -188,-211 -188,-243 0,-39 75,-160 103,-164 68,-12 159.99996,44 293.99996,178 l 92.00004,91 10,-49 c 21,-95 58,-138 120,-138 41,0 119,47 127,76 3,11 2,96 -3,187 l -8,167 73,80 c 41,44 78,80 83,80 5,0 9,-19 9,-42 0,-108 32,-232 70,-270 38,-37 110,-40 161,-5 l 34,23 -2,135 c -1,74 -9,192 -17,264 l -14,130 51,59 51,59 23,-134 c 45,-260 80,-346 148,-369 20,-7 48,-9 62,-5 14,3 103,59 197,123 94,65 188,128 209,141 l 37,23 v -85 -84 l -39,-26 c -116,-77 -388,-326 -397,-364 -16,-63 54,-163 114,-163 20,0 66,29 156,98 70,53 136,103 147,111 18,13 19,10 19,-80 v -94 l -145,-145 -145,-145 v -62 c 0,-75 24,-110 82,-120 55,-8 81,2 145,58 l 58,51 5,-219 c 5,-231 8,-244 56,-282 20,-16 41,-21 86,-21 70,0 111,19 138,63 18,29 20,51 20,235 v 203 l 45,-31 c 91,-63 180,-75 220,-30 11,13 20,42 23,76 l 5,55 -147,147 -146,148 v 107 108 l 138,-106 c 145,-110 166,-119 220,-91 41,22 70,57 77,97 9,47 -2,59 -249,279 l -185,165 v 63 c -1,34 2,62 5,62 3,0 84,-54 181,-121 96,-66 191,-127 210,-136 65,-27 119,-2 156,72 18,36 61,220 78,330 17,115 18,116 76,62 l 49,-46 -30,-254 c -16,-140 -26,-265 -23,-278 9,-36 85,-79 138,-79 76,1 100,38 125,187 8,54 18,116 22,137 l 7,39 78,-74 79,-74 -11,-173 c -15,-217 -9,-251 46,-280 31,-17 99,-15 134,4 37,19 68,83 69,142 0,23 3,42 6,42 3,0 56,-47 117,-105 157,-147 199,-177 241,-177 63,0 156,72 156,120 0,62 -77,175 -231,337 -38,40 -69,75 -69,79 0,3 23,6 52,6 71,0 131,30 153,77 25,51 15,120 -20,150 -25,22 -31,23 -249,23 h -223 l -61,68 -61,69 127,11 c 223,20 292,55 292,150 0,71 -32,116 -85,120 -38,3 -429,-22 -527,-34 -47,-6 -49,-5 -105,49 -55,53 -57,56 -33,61 14,2 106,21 205,40 212,41 273,59 309,87 24,19 26,27 26,90 v 70 l -109,159 c -60,87 -112,163 -115,169.0001 -5,8 17,11 71,11 h 78 l 46,-62.0001 c 25,-35 96,-123 159,-195 124,-146 143,-157 221,-134 48,15 69,51 69,120 0,52 1,51 -117,201 -24,30 -43,58 -43,63.0001 0,4 51,7 114,7 h 113 l 26,-39.0001 c 14,-21 68,-82 119,-135 87,-90 96,-96 132,-96 72,0 136,65 136,138 0,19 -13,47 -35,76 -19,26 -35,48.0001 -35,51.0001 0,3 78,5 173,5 169,0 173,1 210,26 44,29 57,57 57,120 0,51 -16,88 -55,124 -26,25 -29,25 -247,30 l -221,5 61,67 c 68,75 77,97 68,163 -10,61 -50,95 -115,95 h -47 l -125,-127 c -69,-71 -138,-145 -153,-165 l -28,-38 h -99 c -55,0 -99,2 -99,5 0,2 32,44 71,92 93,116 147,208 155,264 5,39 3,49 -20,76 -34,40 -98,53 -144,29 -16,-8 -117,-117 -222,-241 l -193,-225 h -74 c -41,0 -73,3 -71,8 2,4 51,78 111,164 204,298 221,335 178,390 -37,47 -171,90 -425,139 l -58,11 51,52 51,52 223,-27 c 305,-38 289,-39 332,19 28,37 35,56 35,94 0,39 -4,50 -30,71 -29,25 -113,49 -215,62 -85,11 -96,14 -88,29 4,8 37,44 72,81 l 64,66 164,-11 c 184,-12 209,-7 259,53 21,25 25,38 21,70 -8,61 -52,98 -132,112 -22,4 -43,10 -48,12 -4,3 30,46 76,96 105,115 147,173 147,204 0,33 -34,97 -66,122 -21,16 -41,21 -91,21 h -64 l -129,-121 c -71,-66 -132,-124 -135,-130 -13,-20 -25,-7 -25,27 0,64 -31,176 -56,201 -33,33 -94,31 -150,-4 -59,-38 -64,-54 -54,-164 5,-52 10,-147 10,-212 v -118 l -62,-68 c -35,-38 -66,-69 -69,-70 -4,-1 -9,43 -13,97 -14,191 -43,307 -85,339 -9,7 -37,13 -63,13 -38,0 -55,-6 -90,-33 -41,-32 -43,-36 -42,-83 1,-44 37,-437 49,-526 5,-33 0,-42 -46,-93 -29,-31 -55,-52 -59,-48 -4,4 -17,64 -30,133 -30,165 -76,353 -96,393 -55,107 -102,95 -403,-107 l -141,-95 v 63 64 l 168,145 c 92,80 190,168 217,196 46,47 50,56 49,97 -1,60 -34,94 -97,101 -25,3 -56,3 -69,0 -13,-4 -77,-47 -143,-96 l -120,-90 -3,107 -3,106 146,146 c 142,142 145,146 145,188 0,79 -42,122 -120,122 -28,0 -103,-45 -135,-80 -10,-11 -22,-20 -27,-20 -4,0 -8,68 -8,150 0,162 -5,184 -54,229 -38,35 -127,40 -177,10 z m -346,-1581 c 51,-34 134,-92 185,-130 l 92,-68 v -63 -64 l -170,-96 c -94,-54 -174,-96 -178,-96 -4,1 -32,29 -63,63 l -56,61 13,90 c 24,162 66,365 76,365 5,0 50,-28 101,-62 z m 965,-95 c 17,-87 36,-195 43,-241 l 13,-83 -42,-42 -42,-42 -127,64 c -70,34 -151,78 -180,97 l -53,34 v 64 c 0,63 1,64 43,98 47,39 298,208 308,208 4,0 20,-71 37,-157 z m -271,-624 c 142,-78 275,-151 295,-163 l 38,-21 v -333 -332.0001 l -69,-45 c -119,-77 -489,-285 -507,-285 -37,0 -390,195 -521,288 l -63,44 v 328.0001 328 l 168,100 c 142,85 392,230 399,232 1,0 118,-64 260,-141 z m -1074,82 42,-39 -48,-44 -47,-44 v -157 -157 h -68 c -66,0 -68,1 -87,33 -10,17 -70,110 -132,206 -63,95 -112,175 -110,178 7,7 328,61 370,62 31,1 45,-6 80,-38 z m 1855,9 c 102,-17 187,-32 190,-34 4,-5 -205,-312 -255,-373 -23,-29 -42,-43 -58,-43 -23,0 -23,2 -28,133 -5,158 -16,196 -68,248 l -40,40 23,29 c 13,16 29,29 36,29 8,1 98,-13 200,-29 z m -1908,-913.0001 c 0,-142 3,-168 19,-201 l 20,-38 -47,6 c -68,10 -386,68 -391,72 -2,1 45,75 104,163 l 108,161.0001 h 93 94 z m 1921,96 c 31,-38 83,-109 117,-160 l 62,-92 -38,-10 c -30,-8 -221,-46 -334,-66 -16,-2 -28,-1 -28,2 0,4 12,20 28,36 27,28 27,29 30,193 l 3,164.0001 h 53 52 z m -1473,-572 c 48,-26 126,-69 175,-95 48,-26 87,-51 87,-55 0,-9 -380,-265 -384,-259 -1,1 -18,86 -38,188 l -37,185 47,42 c 26,23 50,42 55,43 4,0 47,-22 95,-49 z m 978,-55 c -7,-71 -53,-346 -58,-352 -2,-2 -62,35 -134,82 -71,47 -150,97 -176,112 -27,15 -48,32 -48,38 0,7 53,41 118,78 64,36 146,83 182,105 l 65,39 29,-21 c 27,-19 28,-22 22,-81 z"
         id="svg_2"
         style="fill:#000000" />
      <path
         d="m 2579.2408,10765.712 c -119,-63 -316,-177 -390,-226 -118,-79 -115,-68 -115,-393 0,-304.0001 1,-307.0001 75,-365.0001 85,-68 449,-270 485,-270 39,0 411,199 507,271 38,28 55,50 63,77 7,24 10,131 8,311.0001 l -3,273 -46,42 c -25,22 -93,69 -150,103 -111,65 -341,189 -368,198 -9,3 -39,-7 -66,-21 z"
         id="svg_3"
         style="fill:#000000" />
    </g>
  </g>
</svg>
