<svg width="22" height="22" viewBox="0 0 22 22" fill="none" xmlns="http://www.w3.org/2000/svg">
<path fill-rule="evenodd" clip-rule="evenodd" d="M7.37155 2C5.9052 2 4.54176 3.35574 4.54176 5.25532C4.54176 6.03281 4.91207 6.95231 5.62635 7.85109C6.33245 8.73957 7.31284 9.52627 8.37582 10.0364C8.7846 10.2325 9.01025 10.6791 8.92562 11.1246C8.841 11.57 8.46729 11.9028 8.01506 11.9353C7.18428 11.9952 6.21469 11.9724 5.09092 11.7851C4.15195 11.6286 3.40809 11.936 2.87806 12.4672C2.32714 13.0193 2 13.8261 2 14.6284C2 16.0948 3.35574 17.4582 5.25532 17.4582C6.03281 17.4582 6.95231 17.0879 7.85109 16.3736C8.73957 15.6675 9.52627 14.6872 10.0364 13.6242C10.2325 13.2154 10.6791 12.9897 11.1246 13.0744C11.57 13.159 11.9028 13.5327 11.9353 13.9849C11.9952 14.8157 11.9724 15.7853 11.7851 16.9091C11.6286 17.8481 11.936 18.5919 12.4672 19.1219C13.0193 19.6729 13.8261 20 14.6284 20C16.0948 20 17.4582 18.6443 17.4582 16.7447C17.4582 15.9672 17.0879 15.0477 16.3736 14.1489C15.6676 13.2604 14.6872 12.4737 13.6242 11.9636C13.2154 11.7675 12.9898 11.3209 13.0744 10.8754C13.159 10.43 13.5327 10.0972 13.9849 10.0647C14.8157 10.0048 15.7853 10.0276 16.9091 10.2149C17.8481 10.3714 18.5919 10.064 19.1219 9.53283C19.6729 8.98075 20 8.17386 20 7.37155C20 5.9052 18.6443 4.54176 16.7447 4.54176C15.9672 4.54176 15.0477 4.91207 14.1489 5.62635C13.2604 6.33245 12.4737 7.31284 11.9636 8.37583C11.7675 8.7846 11.3209 9.01025 10.8754 8.92563C10.43 8.84101 10.0972 8.46729 10.0647 8.01507C10.0048 7.18428 10.0276 6.21469 10.2149 5.09092C10.3714 4.15195 10.064 3.40809 9.53283 2.87806C8.98075 2.32714 8.17386 2 7.37155 2ZM2.54176 5.25532C2.54176 2.4546 4.60763 0 7.37155 0C8.68437 0 10.0051 0.523927 10.9456 1.46236C11.7456 2.26073 12.2607 3.35308 12.2559 4.62756C12.4653 4.42697 12.682 4.23744 12.9046 4.06059C14.0208 3.1735 15.3674 2.54176 16.7447 2.54176C19.5454 2.54176 22 4.60763 22 7.37155C22 8.68437 21.4761 10.0051 20.5376 10.9456C19.7393 11.7456 18.6469 12.2607 17.3724 12.2559C17.573 12.4653 17.7626 12.682 17.9394 12.9046C18.8265 14.0208 19.4582 15.3674 19.4582 16.7447C19.4582 19.5454 17.3924 22 14.6284 22C13.3156 22 11.9949 21.4761 11.0544 20.5376C10.2544 19.7393 9.73934 18.6469 9.74408 17.3724C9.53466 17.573 9.31796 17.7626 9.09543 17.9394C7.9792 18.8265 6.63259 19.4582 5.25532 19.4582C2.4546 19.4582 0 17.3924 0 14.6284C0 13.3156 0.523927 11.9949 1.46236 11.0544C2.26073 10.2544 3.35308 9.73934 4.62755 9.74408C4.42697 9.53466 4.23744 9.31796 4.06059 9.09543C3.1735 7.9792 2.54176 6.63259 2.54176 5.25532Z" fill="black"/>
</svg>
