<?xml version="1.0" encoding="UTF-8" standalone="no"?>
<svg
   width="944"
   height="622"
   viewBox="0 0 944 622"
   fill="none"
   version="1.1"
   id="svg728"
   sodipodi:docname="FanMap.svg"
   inkscape:version="1.1.1 (3bf5ae0d25, 2021-09-20)"
   xmlns:inkscape="http://www.inkscape.org/namespaces/inkscape"
   xmlns:sodipodi="http://sodipodi.sourceforge.net/DTD/sodipodi-0.dtd"
   xmlns="http://www.w3.org/2000/svg"
   xmlns:svg="http://www.w3.org/2000/svg">
  <sodipodi:namedview
     id="namedview730"
     pagecolor="#ffffff"
     bordercolor="#666666"
     borderopacity="1.0"
     inkscape:pageshadow="2"
     inkscape:pageopacity="0.0"
     inkscape:pagecheckerboard="0"
     showgrid="false"
     inkscape:zoom="0.65273312"
     inkscape:cx="622"
     inkscape:cy="343.93842"
     inkscape:window-width="1920"
     inkscape:window-height="1001"
     inkscape:window-x="350"
     inkscape:window-y="1431"
     inkscape:window-maximized="1"
     inkscape:current-layer="svg728" />
  <rect
     width="944"
     height="622"
     rx="16"
     fill="white"
     id="rect2" />
  <rect
     x="24"
     y="24"
     width="896"
     height="64"
     rx="10"
     fill="#F7F8FA"
     id="rect4" />
  <path
     d="M435.147 68.34C433.266 68.34 431.566 68.0567 430.047 67.49C428.529 66.9233 427.225 66.1073 426.137 65.042C425.072 63.954 424.245 62.6393 423.655 61.098C423.089 59.534 422.805 57.7773 422.805 55.828C422.805 53.856 423.077 52.0993 423.621 50.558C424.188 49.0167 424.993 47.7133 426.035 46.648C427.101 45.56 428.393 44.7327 429.911 44.166C431.43 43.5993 433.164 43.316 435.113 43.316C436.791 43.316 438.219 43.486 439.397 43.826C440.599 44.1433 441.551 44.5173 442.253 44.948V48.62C441.369 48.0533 440.304 47.6227 439.057 47.328C437.833 47.0107 436.564 46.852 435.249 46.852C432.507 46.852 430.467 47.6 429.129 49.096C427.815 50.5693 427.157 52.8133 427.157 55.828C427.157 61.812 429.923 64.804 435.453 64.804C436.745 64.804 437.958 64.6453 439.091 64.328C440.247 64.0107 441.301 63.512 442.253 62.832V66.47C441.619 66.946 440.701 67.3767 439.499 67.762C438.298 68.1473 436.847 68.34 435.147 68.34ZM460.613 68H446.367V50.354H450.311V64.804H457.723V50.354H461.667V64.804H464.319V73.032H460.919L460.613 68ZM481.643 66.708C481.393 66.8667 481.087 67.048 480.725 67.252C480.362 67.4333 479.931 67.6033 479.433 67.762C478.934 67.9207 478.356 68.0567 477.699 68.17C477.041 68.2833 476.293 68.34 475.455 68.34C472.213 68.34 469.788 67.5353 468.179 65.926C466.592 64.3167 465.799 62.0613 465.799 59.16C465.799 57.732 466.014 56.4513 466.445 55.318C466.875 54.1847 467.476 53.2327 468.247 52.462C469.017 51.6687 469.935 51.068 471.001 50.66C472.066 50.2293 473.233 50.014 474.503 50.014C475.817 50.014 476.996 50.2293 478.039 50.66C479.104 51.0907 479.977 51.7367 480.657 52.598C481.337 53.4593 481.801 54.5247 482.051 55.794C482.323 57.0633 482.334 58.548 482.085 60.248H469.879C470.037 61.8573 470.57 63.07 471.477 63.886C472.383 64.6793 473.8 65.076 475.727 65.076C477.132 65.076 478.299 64.906 479.229 64.566C480.181 64.2033 480.985 63.8293 481.643 63.444V66.708ZM474.503 53.142C473.347 53.142 472.372 53.4933 471.579 54.196C470.785 54.8987 470.264 55.9413 470.015 57.324H478.311C478.356 55.896 478.039 54.842 477.359 54.162C476.679 53.482 475.727 53.142 474.503 53.142ZM497.136 60.554H489.69V68H485.746V50.354H489.69V57.358H497.136V50.354H501.08V68H497.136V60.554ZM515.668 64.906C515.487 65.314 515.237 65.722 514.92 66.13C514.625 66.538 514.251 66.912 513.798 67.252C513.367 67.5693 512.846 67.83 512.234 68.034C511.622 68.238 510.908 68.34 510.092 68.34C509.321 68.34 508.607 68.2267 507.95 68C507.293 67.796 506.715 67.4787 506.216 67.048C505.74 66.6173 505.355 66.0847 505.06 65.45C504.788 64.7927 504.652 64.0447 504.652 63.206C504.652 61.2793 505.366 59.84 506.794 58.888C508.222 57.9133 510.239 57.426 512.846 57.426H515.532V56.338C515.532 55.182 515.237 54.3887 514.648 53.958C514.059 53.5047 513.084 53.278 511.724 53.278C510.568 53.278 509.48 53.448 508.46 53.788C507.463 54.1053 506.579 54.4793 505.808 54.91V51.612C506.511 51.2267 507.44 50.864 508.596 50.524C509.752 50.184 511.01 50.014 512.37 50.014C514.637 50.014 516.382 50.49 517.606 51.442C518.853 52.3713 519.476 53.8673 519.476 55.93V65.144C519.476 65.348 519.476 65.586 519.476 65.858C519.499 66.1073 519.51 66.368 519.51 66.64C519.533 66.912 519.555 67.1727 519.578 67.422C519.601 67.6487 519.623 67.8413 519.646 68H516.008C515.94 67.6827 515.872 67.2407 515.804 66.674C515.759 66.1073 515.725 65.5973 515.702 65.144L515.668 64.906ZM511.18 65.28C512.019 65.28 512.71 65.11 513.254 64.77C513.821 64.4073 514.274 63.9993 514.614 63.546C514.954 63.07 515.192 62.6053 515.328 62.152C515.464 61.6987 515.532 61.3813 515.532 61.2V60.01H513.084C511.52 60.01 510.375 60.2593 509.65 60.758C508.925 61.234 508.562 61.914 508.562 62.798C508.562 63.5687 508.777 64.1807 509.208 64.634C509.661 65.0647 510.319 65.28 511.18 65.28Z"
     fill="#BABFD1"
     id="path6" />
  <rect
     x="174"
     y="120"
     width="24"
     height="22"
     rx="4"
     fill="#F1F2F5"
     id="rect8" />
  <path
     d="M172 140V125C172 123.895 171.105 123 170 123C168.895 123 168 123.895 168 125V142C168 145.314 170.686 148 174 148H198C201.314 148 204 145.314 204 142V125C204 123.895 203.105 123 202 123C200.895 123 200 123.895 200 125V140C200 142.209 198.209 144 196 144H176C173.791 144 172 142.209 172 140Z"
     fill="#F1F2F5"
     id="path10" />
  <rect
     x="226"
     y="120"
     width="24"
     height="22"
     rx="4"
     fill="#F1F2F5"
     id="rect12" />
  <path
     d="M224 140V125C224 123.895 223.105 123 222 123C220.895 123 220 123.895 220 125V142C220 145.314 222.686 148 226 148H250C253.314 148 256 145.314 256 142V125C256 123.895 255.105 123 254 123C252.895 123 252 123.895 252 125V140C252 142.209 250.209 144 248 144H228C225.791 144 224 142.209 224 140Z"
     fill="#F1F2F5"
     id="path14" />
  <rect
     x="278"
     y="120"
     width="24"
     height="22"
     rx="4"
     fill="#F1F2F5"
     id="rect16" />
  <path
     d="M276 140V125C276 123.895 275.105 123 274 123C272.895 123 272 123.895 272 125V142C272 145.314 274.686 148 278 148H302C305.314 148 308 145.314 308 142V125C308 123.895 307.105 123 306 123C304.895 123 304 123.895 304 125V140C304 142.209 302.209 144 300 144H280C277.791 144 276 142.209 276 140Z"
     fill="#F1F2F5"
     id="path18" />
  <rect
     x="330"
     y="120"
     width="24"
     height="22"
     rx="4"
     fill="#F1F2F5"
     id="rect20" />
  <path
     d="M328 140V125C328 123.895 327.105 123 326 123C324.895 123 324 123.895 324 125V142C324 145.314 326.686 148 330 148H354C357.314 148 360 145.314 360 142V125C360 123.895 359.105 123 358 123C356.895 123 356 123.895 356 125V140C356 142.209 354.209 144 352 144H332C329.791 144 328 142.209 328 140Z"
     fill="#F1F2F5"
     id="path22" />
  <rect
     x="382"
     y="120"
     width="24"
     height="22"
     rx="4"
     fill="#F1F2F5"
     id="rect24" />
  <path
     d="M380 140V125C380 123.895 379.105 123 378 123C376.895 123 376 123.895 376 125V142C376 145.314 378.686 148 382 148H406C409.314 148 412 145.314 412 142V125C412 123.895 411.105 123 410 123C408.895 123 408 123.895 408 125V140C408 142.209 406.209 144 404 144H384C381.791 144 380 142.209 380 140Z"
     fill="#F1F2F5"
     id="path26" />
  <rect
     x="434"
     y="120"
     width="24"
     height="22"
     rx="4"
     fill="#F1F2F5"
     id="rect28" />
  <path
     d="M432 140V125C432 123.895 431.105 123 430 123C428.895 123 428 123.895 428 125V142C428 145.314 430.686 148 434 148H458C461.314 148 464 145.314 464 142V125C464 123.895 463.105 123 462 123C460.895 123 460 123.895 460 125V140C460 142.209 458.209 144 456 144H436C433.791 144 432 142.209 432 140Z"
     fill="#F1F2F5"
     id="path30" />
  <rect
     x="486"
     y="120"
     width="24"
     height="22"
     rx="4"
     fill="#F1F2F5"
     id="rect32" />
  <path
     d="M484 140V125C484 123.895 483.105 123 482 123C480.895 123 480 123.895 480 125V142C480 145.314 482.686 148 486 148H510C513.314 148 516 145.314 516 142V125C516 123.895 515.105 123 514 123C512.895 123 512 123.895 512 125V140C512 142.209 510.209 144 508 144H488C485.791 144 484 142.209 484 140Z"
     fill="#F1F2F5"
     id="path34" />
  <rect
     x="538"
     y="120"
     width="24"
     height="22"
     rx="4"
     fill="#F1F2F5"
     id="rect36" />
  <path
     d="M536 140V125C536 123.895 535.105 123 534 123C532.895 123 532 123.895 532 125V142C532 145.314 534.686 148 538 148H562C565.314 148 568 145.314 568 142V125C568 123.895 567.105 123 566 123C564.895 123 564 123.895 564 125V140C564 142.209 562.209 144 560 144H540C537.791 144 536 142.209 536 140Z"
     fill="#F1F2F5"
     id="path38" />
  <rect
     x="590"
     y="120"
     width="24"
     height="22"
     rx="4"
     fill="#F1F2F5"
     id="rect40" />
  <path
     d="M588 140V125C588 123.895 587.105 123 586 123C584.895 123 584 123.895 584 125V142C584 145.314 586.686 148 590 148H614C617.314 148 620 145.314 620 142V125C620 123.895 619.105 123 618 123C616.895 123 616 123.895 616 125V140C616 142.209 614.209 144 612 144H592C589.791 144 588 142.209 588 140Z"
     fill="#F1F2F5"
     id="path42" />
  <rect
     x="642"
     y="120"
     width="24"
     height="22"
     rx="4"
     fill="#F1F2F5"
     id="rect44" />
  <path
     d="M640 140V125C640 123.895 639.105 123 638 123C636.895 123 636 123.895 636 125V142C636 145.314 638.686 148 642 148H666C669.314 148 672 145.314 672 142V125C672 123.895 671.105 123 670 123C668.895 123 668 123.895 668 125V140C668 142.209 666.209 144 664 144H644C641.791 144 640 142.209 640 140Z"
     fill="#F1F2F5"
     id="path46" />
  <rect
     x="694"
     y="120"
     width="24"
     height="22"
     rx="4"
     fill="#F1F2F5"
     id="rect48" />
  <path
     d="M692 140V125C692 123.895 691.105 123 690 123C688.895 123 688 123.895 688 125V142C688 145.314 690.686 148 694 148H718C721.314 148 724 145.314 724 142V125C724 123.895 723.105 123 722 123C720.895 123 720 123.895 720 125V140C720 142.209 718.209 144 716 144H696C693.791 144 692 142.209 692 140Z"
     fill="#F1F2F5"
     id="path50" />
  <rect
     x="746"
     y="120"
     width="24"
     height="22"
     rx="4"
     fill="#F1F2F5"
     id="rect52" />
  <path
     d="M744 140V125C744 123.895 743.105 123 742 123C740.895 123 740 123.895 740 125V142C740 145.314 742.686 148 746 148H770C773.314 148 776 145.314 776 142V125C776 123.895 775.105 123 774 123C772.895 123 772 123.895 772 125V140C772 142.209 770.209 144 768 144H748C745.791 144 744 142.209 744 140Z"
     fill="#F1F2F5"
     id="path54" />
  <rect
     x="200"
     y="164"
     width="24"
     height="22"
     rx="4"
     fill="#F1F2F5"
     id="rect56" />
  <path
     d="M198 184V169C198 167.895 197.105 167 196 167C194.895 167 194 167.895 194 169V186C194 189.314 196.686 192 200 192H224C227.314 192 230 189.314 230 186V169C230 167.895 229.105 167 228 167C226.895 167 226 167.895 226 169V184C226 186.209 224.209 188 222 188H202C199.791 188 198 186.209 198 184Z"
     fill="#F1F2F5"
     id="path58" />
  <rect
     x="252"
     y="164"
     width="24"
     height="22"
     rx="4"
     fill="#F1F2F5"
     id="rect60" />
  <path
     d="M250 184V169C250 167.895 249.105 167 248 167C246.895 167 246 167.895 246 169V186C246 189.314 248.686 192 252 192H276C279.314 192 282 189.314 282 186V169C282 167.895 281.105 167 280 167C278.895 167 278 167.895 278 169V184C278 186.209 276.209 188 274 188H254C251.791 188 250 186.209 250 184Z"
     fill="#F1F2F5"
     id="path62" />
  <rect
     x="304"
     y="164"
     width="24"
     height="22"
     rx="4"
     fill="#F1F2F5"
     id="rect64" />
  <path
     d="M302 184V169C302 167.895 301.105 167 300 167C298.895 167 298 167.895 298 169V186C298 189.314 300.686 192 304 192H328C331.314 192 334 189.314 334 186V169C334 167.895 333.105 167 332 167C330.895 167 330 167.895 330 169V184C330 186.209 328.209 188 326 188H306C303.791 188 302 186.209 302 184Z"
     fill="#F1F2F5"
     id="path66" />
  <rect
     x="356"
     y="164"
     width="24"
     height="22"
     rx="4"
     fill="#F1F2F5"
     id="rect68" />
  <path
     d="M354 184V169C354 167.895 353.105 167 352 167C350.895 167 350 167.895 350 169V186C350 189.314 352.686 192 356 192H380C383.314 192 386 189.314 386 186V169C386 167.895 385.105 167 384 167C382.895 167 382 167.895 382 169V184C382 186.209 380.209 188 378 188H358C355.791 188 354 186.209 354 184Z"
     fill="#F1F2F5"
     id="path70" />
  <rect
     x="408"
     y="164"
     width="24"
     height="22"
     rx="4"
     fill="#F1F2F5"
     id="rect72" />
  <path
     d="M406 184V169C406 167.895 405.105 167 404 167C402.895 167 402 167.895 402 169V186C402 189.314 404.686 192 408 192H432C435.314 192 438 189.314 438 186V169C438 167.895 437.105 167 436 167C434.895 167 434 167.895 434 169V184C434 186.209 432.209 188 430 188H410C407.791 188 406 186.209 406 184Z"
     fill="#F1F2F5"
     id="path74" />
  <rect
     x="460"
     y="164"
     width="24"
     height="22"
     rx="4"
     fill="#F1F2F5"
     id="rect76" />
  <path
     d="M458 184V169C458 167.895 457.105 167 456 167C454.895 167 454 167.895 454 169V186C454 189.314 456.686 192 460 192H484C487.314 192 490 189.314 490 186V169C490 167.895 489.105 167 488 167C486.895 167 486 167.895 486 169V184C486 186.209 484.209 188 482 188H462C459.791 188 458 186.209 458 184Z"
     fill="#F1F2F5"
     id="path78" />
  <rect
     x="564"
     y="164"
     width="24"
     height="22"
     rx="4"
     fill="#F1F2F5"
     id="rect80" />
  <path
     d="M562 184V169C562 167.895 561.105 167 560 167C558.895 167 558 167.895 558 169V186C558 189.314 560.686 192 564 192H588C591.314 192 594 189.314 594 186V169C594 167.895 593.105 167 592 167C590.895 167 590 167.895 590 169V184C590 186.209 588.209 188 586 188H566C563.791 188 562 186.209 562 184Z"
     fill="#F1F2F5"
     id="path82" />
  <rect
     x="616"
     y="164"
     width="24"
     height="22"
     rx="4"
     fill="#F1F2F5"
     id="rect84" />
  <path
     d="M614 184V169C614 167.895 613.105 167 612 167C610.895 167 610 167.895 610 169V186C610 189.314 612.686 192 616 192H640C643.314 192 646 189.314 646 186V169C646 167.895 645.105 167 644 167C642.895 167 642 167.895 642 169V184C642 186.209 640.209 188 638 188H618C615.791 188 614 186.209 614 184Z"
     fill="#F1F2F5"
     id="path86" />
  <rect
     x="668"
     y="164"
     width="24"
     height="22"
     rx="4"
     fill="#F1F2F5"
     id="rect88" />
  <path
     d="M666 184V169C666 167.895 665.105 167 664 167C662.895 167 662 167.895 662 169V186C662 189.314 664.686 192 668 192H692C695.314 192 698 189.314 698 186V169C698 167.895 697.105 167 696 167C694.895 167 694 167.895 694 169V184C694 186.209 692.209 188 690 188H670C667.791 188 666 186.209 666 184Z"
     fill="#F1F2F5"
     id="path90" />
  <rect
     x="720"
     y="164"
     width="24"
     height="22"
     rx="4"
     fill="#F1F2F5"
     id="rect92" />
  <path
     d="M718 184V169C718 167.895 717.105 167 716 167C714.895 167 714 167.895 714 169V186C714 189.314 716.686 192 720 192H744C747.314 192 750 189.314 750 186V169C750 167.895 749.105 167 748 167C746.895 167 746 167.895 746 169V184C746 186.209 744.209 188 742 188H722C719.791 188 718 186.209 718 184Z"
     fill="#F1F2F5"
     id="path94" />
  <rect
     x="174"
     y="208"
     width="24"
     height="22"
     rx="4"
     fill="#F1F2F5"
     id="rect96" />
  <path
     d="M172 228V213C172 211.895 171.105 211 170 211C168.895 211 168 211.895 168 213V230C168 233.314 170.686 236 174 236H198C201.314 236 204 233.314 204 230V213C204 211.895 203.105 211 202 211C200.895 211 200 211.895 200 213V228C200 230.209 198.209 232 196 232H176C173.791 232 172 230.209 172 228Z"
     fill="#F1F2F5"
     id="path98" />
  <rect
     x="226"
     y="208"
     width="24"
     height="22"
     rx="4"
     fill="#F1F2F5"
     id="rect100" />
  <path
     d="M224 228V213C224 211.895 223.105 211 222 211C220.895 211 220 211.895 220 213V230C220 233.314 222.686 236 226 236H250C253.314 236 256 233.314 256 230V213C256 211.895 255.105 211 254 211C252.895 211 252 211.895 252 213V228C252 230.209 250.209 232 248 232H228C225.791 232 224 230.209 224 228Z"
     fill="#F1F2F5"
     id="path102" />
  <rect
     x="278"
     y="208"
     width="24"
     height="22"
     rx="4"
     fill="#F1F2F5"
     id="rect104" />
  <path
     d="M276 228V213C276 211.895 275.105 211 274 211C272.895 211 272 211.895 272 213V230C272 233.314 274.686 236 278 236H302C305.314 236 308 233.314 308 230V213C308 211.895 307.105 211 306 211C304.895 211 304 211.895 304 213V228C304 230.209 302.209 232 300 232H280C277.791 232 276 230.209 276 228Z"
     fill="#F1F2F5"
     id="path106" />
  <rect
     x="330"
     y="208"
     width="24"
     height="22"
     rx="4"
     fill="#F1F2F5"
     id="rect108" />
  <path
     d="M328 228V213C328 211.895 327.105 211 326 211C324.895 211 324 211.895 324 213V230C324 233.314 326.686 236 330 236H354C357.314 236 360 233.314 360 230V213C360 211.895 359.105 211 358 211C356.895 211 356 211.895 356 213V228C356 230.209 354.209 232 352 232H332C329.791 232 328 230.209 328 228Z"
     fill="#F1F2F5"
     id="path110" />
  <rect
     x="382"
     y="208"
     width="24"
     height="22"
     rx="4"
     fill="#F1F2F5"
     id="rect112" />
  <path
     d="M380 228V213C380 211.895 379.105 211 378 211C376.895 211 376 211.895 376 213V230C376 233.314 378.686 236 382 236H406C409.314 236 412 233.314 412 230V213C412 211.895 411.105 211 410 211C408.895 211 408 211.895 408 213V228C408 230.209 406.209 232 404 232H384C381.791 232 380 230.209 380 228Z"
     fill="#F1F2F5"
     id="path114" />
  <rect
     x="434"
     y="208"
     width="24"
     height="22"
     rx="4"
     fill="#F1F2F5"
     id="rect116" />
  <path
     d="M432 228V213C432 211.895 431.105 211 430 211C428.895 211 428 211.895 428 213V230C428 233.314 430.686 236 434 236H458C461.314 236 464 233.314 464 230V213C464 211.895 463.105 211 462 211C460.895 211 460 211.895 460 213V228C460 230.209 458.209 232 456 232H436C433.791 232 432 230.209 432 228Z"
     fill="#F1F2F5"
     id="path118" />
  <rect
     x="486"
     y="208"
     width="24"
     height="22"
     rx="4"
     fill="#F1F2F5"
     id="rect120" />
  <path
     d="M484 228V213C484 211.895 483.105 211 482 211C480.895 211 480 211.895 480 213V230C480 233.314 482.686 236 486 236H510C513.314 236 516 233.314 516 230V213C516 211.895 515.105 211 514 211C512.895 211 512 211.895 512 213V228C512 230.209 510.209 232 508 232H488C485.791 232 484 230.209 484 228Z"
     fill="#F1F2F5"
     id="path122" />
  <rect
     x="590"
     y="208"
     width="24"
     height="22"
     rx="4"
     fill="#F1F2F5"
     id="rect124" />
  <path
     d="M588 228V213C588 211.895 587.105 211 586 211C584.895 211 584 211.895 584 213V230C584 233.314 586.686 236 590 236H614C617.314 236 620 233.314 620 230V213C620 211.895 619.105 211 618 211C616.895 211 616 211.895 616 213V228C616 230.209 614.209 232 612 232H592C589.791 232 588 230.209 588 228Z"
     fill="#F1F2F5"
     id="path126" />
  <rect
     x="642"
     y="208"
     width="24"
     height="22"
     rx="4"
     fill="#F1F2F5"
     id="rect128" />
  <path
     d="M640 228V213C640 211.895 639.105 211 638 211C636.895 211 636 211.895 636 213V230C636 233.314 638.686 236 642 236H666C669.314 236 672 233.314 672 230V213C672 211.895 671.105 211 670 211C668.895 211 668 211.895 668 213V228C668 230.209 666.209 232 664 232H644C641.791 232 640 230.209 640 228Z"
     fill="#F1F2F5"
     id="path130" />
  <rect
     x="694"
     y="208"
     width="24"
     height="22"
     rx="4"
     fill="#F1F2F5"
     id="rect132" />
  <path
     d="M692 228V213C692 211.895 691.105 211 690 211C688.895 211 688 211.895 688 213V230C688 233.314 690.686 236 694 236H718C721.314 236 724 233.314 724 230V213C724 211.895 723.105 211 722 211C720.895 211 720 211.895 720 213V228C720 230.209 718.209 232 716 232H696C693.791 232 692 230.209 692 228Z"
     fill="#F1F2F5"
     id="path134" />
  <rect
     x="746"
     y="208"
     width="24"
     height="22"
     rx="4"
     fill="#F1F2F5"
     id="rect136" />
  <path
     d="M744 228V213C744 211.895 743.105 211 742 211C740.895 211 740 211.895 740 213V230C740 233.314 742.686 236 746 236H770C773.314 236 776 233.314 776 230V213C776 211.895 775.105 211 774 211C772.895 211 772 211.895 772 213V228C772 230.209 770.209 232 768 232H748C745.791 232 744 230.209 744 228Z"
     fill="#F1F2F5"
     id="path138" />
  <rect
     x="200"
     y="252"
     width="24"
     height="22"
     rx="4"
     fill="#F1F2F5"
     id="rect140" />
  <path
     d="M198 272V257C198 255.895 197.105 255 196 255C194.895 255 194 255.895 194 257V274C194 277.314 196.686 280 200 280H224C227.314 280 230 277.314 230 274V257C230 255.895 229.105 255 228 255C226.895 255 226 255.895 226 257V272C226 274.209 224.209 276 222 276H202C199.791 276 198 274.209 198 272Z"
     fill="#F1F2F5"
     id="path142" />
  <rect
     x="252"
     y="252"
     width="24"
     height="22"
     rx="4"
     fill="#F1F2F5"
     id="rect144" />
  <path
     d="M250 272V257C250 255.895 249.105 255 248 255C246.895 255 246 255.895 246 257V274C246 277.314 248.686 280 252 280H276C279.314 280 282 277.314 282 274V257C282 255.895 281.105 255 280 255C278.895 255 278 255.895 278 257V272C278 274.209 276.209 276 274 276H254C251.791 276 250 274.209 250 272Z"
     fill="#F1F2F5"
     id="path146" />
  <rect
     x="304"
     y="252"
     width="24"
     height="22"
     rx="4"
     fill="#F1F2F5"
     id="rect148" />
  <path
     d="M302 272V257C302 255.895 301.105 255 300 255C298.895 255 298 255.895 298 257V274C298 277.314 300.686 280 304 280H328C331.314 280 334 277.314 334 274V257C334 255.895 333.105 255 332 255C330.895 255 330 255.895 330 257V272C330 274.209 328.209 276 326 276H306C303.791 276 302 274.209 302 272Z"
     fill="#F1F2F5"
     id="path150" />
  <rect
     x="356"
     y="252"
     width="24"
     height="22"
     rx="4"
     fill="#F1F2F5"
     id="rect152" />
  <path
     d="M354 272V257C354 255.895 353.105 255 352 255C350.895 255 350 255.895 350 257V274C350 277.314 352.686 280 356 280H380C383.314 280 386 277.314 386 274V257C386 255.895 385.105 255 384 255C382.895 255 382 255.895 382 257V272C382 274.209 380.209 276 378 276H358C355.791 276 354 274.209 354 272Z"
     fill="#F1F2F5"
     id="path154" />
  <rect
     x="408"
     y="252"
     width="24"
     height="22"
     rx="4"
     fill="#F1F2F5"
     id="rect156" />
  <path
     d="M406 272V257C406 255.895 405.105 255 404 255C402.895 255 402 255.895 402 257V274C402 277.314 404.686 280 408 280H432C435.314 280 438 277.314 438 274V257C438 255.895 437.105 255 436 255C434.895 255 434 255.895 434 257V272C434 274.209 432.209 276 430 276H410C407.791 276 406 274.209 406 272Z"
     fill="#F1F2F5"
     id="path158" />
  <rect
     x="460"
     y="252"
     width="24"
     height="22"
     rx="4"
     fill="#F1F2F5"
     id="rect160" />
  <path
     d="M458 272V257C458 255.895 457.105 255 456 255C454.895 255 454 255.895 454 257V274C454 277.314 456.686 280 460 280H484C487.314 280 490 277.314 490 274V257C490 255.895 489.105 255 488 255C486.895 255 486 255.895 486 257V272C486 274.209 484.209 276 482 276H462C459.791 276 458 274.209 458 272Z"
     fill="#F1F2F5"
     id="path162" />
  <rect
     x="564"
     y="252"
     width="24"
     height="22"
     rx="4"
     fill="#F1F2F5"
     id="rect164" />
  <path
     d="M562 272V257C562 255.895 561.105 255 560 255C558.895 255 558 255.895 558 257V274C558 277.314 560.686 280 564 280H588C591.314 280 594 277.314 594 274V257C594 255.895 593.105 255 592 255C590.895 255 590 255.895 590 257V272C590 274.209 588.209 276 586 276H566C563.791 276 562 274.209 562 272Z"
     fill="#F1F2F5"
     id="path166" />
  <rect
     x="616"
     y="252"
     width="24"
     height="22"
     rx="4"
     fill="#F1F2F5"
     id="rect168" />
  <path
     d="M614 272V257C614 255.895 613.105 255 612 255C610.895 255 610 255.895 610 257V274C610 277.314 612.686 280 616 280H640C643.314 280 646 277.314 646 274V257C646 255.895 645.105 255 644 255C642.895 255 642 255.895 642 257V272C642 274.209 640.209 276 638 276H618C615.791 276 614 274.209 614 272Z"
     fill="#F1F2F5"
     id="path170" />
  <rect
     x="668"
     y="252"
     width="24"
     height="22"
     rx="4"
     fill="#F1F2F5"
     id="rect172" />
  <path
     d="M666 272V257C666 255.895 665.105 255 664 255C662.895 255 662 255.895 662 257V274C662 277.314 664.686 280 668 280H692C695.314 280 698 277.314 698 274V257C698 255.895 697.105 255 696 255C694.895 255 694 255.895 694 257V272C694 274.209 692.209 276 690 276H670C667.791 276 666 274.209 666 272Z"
     fill="#F1F2F5"
     id="path174" />
  <rect
     x="720"
     y="252"
     width="24"
     height="22"
     rx="4"
     fill="#F1F2F5"
     id="rect176" />
  <path
     d="M718 272V257C718 255.895 717.105 255 716 255C714.895 255 714 255.895 714 257V274C714 277.314 716.686 280 720 280H744C747.314 280 750 277.314 750 274V257C750 255.895 749.105 255 748 255C746.895 255 746 255.895 746 257V272C746 274.209 744.209 276 742 276H722C719.791 276 718 274.209 718 272Z"
     fill="#F1F2F5"
     id="path178" />
  <rect
     x="174"
     y="296"
     width="24"
     height="22"
     rx="4"
     fill="#F1F2F5"
     id="rect180" />
  <path
     d="M172 316V301C172 299.895 171.105 299 170 299C168.895 299 168 299.895 168 301V318C168 321.314 170.686 324 174 324H198C201.314 324 204 321.314 204 318V301C204 299.895 203.105 299 202 299C200.895 299 200 299.895 200 301V316C200 318.209 198.209 320 196 320H176C173.791 320 172 318.209 172 316Z"
     fill="#F1F2F5"
     id="path182" />
  <rect
     x="226"
     y="296"
     width="24"
     height="22"
     rx="4"
     fill="#F1F2F5"
     id="rect184" />
  <path
     d="M224 316V301C224 299.895 223.105 299 222 299C220.895 299 220 299.895 220 301V318C220 321.314 222.686 324 226 324H250C253.314 324 256 321.314 256 318V301C256 299.895 255.105 299 254 299C252.895 299 252 299.895 252 301V316C252 318.209 250.209 320 248 320H228C225.791 320 224 318.209 224 316Z"
     fill="#F1F2F5"
     id="path186" />
  <rect
     x="278"
     y="296"
     width="24"
     height="22"
     rx="4"
     fill="#F1F2F5"
     id="rect188" />
  <path
     d="M276 316V301C276 299.895 275.105 299 274 299C272.895 299 272 299.895 272 301V318C272 321.314 274.686 324 278 324H302C305.314 324 308 321.314 308 318V301C308 299.895 307.105 299 306 299C304.895 299 304 299.895 304 301V316C304 318.209 302.209 320 300 320H280C277.791 320 276 318.209 276 316Z"
     fill="#F1F2F5"
     id="path190" />
  <rect
     x="330"
     y="296"
     width="24"
     height="22"
     rx="4"
     fill="#F1F2F5"
     id="rect192" />
  <path
     d="M328 316V301C328 299.895 327.105 299 326 299C324.895 299 324 299.895 324 301V318C324 321.314 326.686 324 330 324H354C357.314 324 360 321.314 360 318V301C360 299.895 359.105 299 358 299C356.895 299 356 299.895 356 301V316C356 318.209 354.209 320 352 320H332C329.791 320 328 318.209 328 316Z"
     fill="#F1F2F5"
     id="path194" />
  <rect
     x="382"
     y="296"
     width="24"
     height="22"
     rx="4"
     fill="#F1F2F5"
     id="rect196" />
  <path
     d="M380 316V301C380 299.895 379.105 299 378 299C376.895 299 376 299.895 376 301V318C376 321.314 378.686 324 382 324H406C409.314 324 412 321.314 412 318V301C412 299.895 411.105 299 410 299C408.895 299 408 299.895 408 301V316C408 318.209 406.209 320 404 320H384C381.791 320 380 318.209 380 316Z"
     fill="#F1F2F5"
     id="path198" />
  <rect
     x="434"
     y="296"
     width="24"
     height="22"
     rx="4"
     fill="#F1F2F5"
     id="rect200" />
  <path
     d="M432 316V301C432 299.895 431.105 299 430 299C428.895 299 428 299.895 428 301V318C428 321.314 430.686 324 434 324H458C461.314 324 464 321.314 464 318V301C464 299.895 463.105 299 462 299C460.895 299 460 299.895 460 301V316C460 318.209 458.209 320 456 320H436C433.791 320 432 318.209 432 316Z"
     fill="#F1F2F5"
     id="path202" />
  <rect
     x="486"
     y="296"
     width="24"
     height="22"
     rx="4"
     fill="#F1F2F5"
     id="rect204" />
  <path
     d="M484 316V301C484 299.895 483.105 299 482 299C480.895 299 480 299.895 480 301V318C480 321.314 482.686 324 486 324H510C513.314 324 516 321.314 516 318V301C516 299.895 515.105 299 514 299C512.895 299 512 299.895 512 301V316C512 318.209 510.209 320 508 320H488C485.791 320 484 318.209 484 316Z"
     fill="#F1F2F5"
     id="path206" />
  <rect
     x="590"
     y="296"
     width="24"
     height="22"
     rx="4"
     fill="#F1F2F5"
     id="rect208" />
  <path
     d="M588 316V301C588 299.895 587.105 299 586 299C584.895 299 584 299.895 584 301V318C584 321.314 586.686 324 590 324H614C617.314 324 620 321.314 620 318V301C620 299.895 619.105 299 618 299C616.895 299 616 299.895 616 301V316C616 318.209 614.209 320 612 320H592C589.791 320 588 318.209 588 316Z"
     fill="#F1F2F5"
     id="path210" />
  <rect
     x="642"
     y="296"
     width="24"
     height="22"
     rx="4"
     fill="#F1F2F5"
     id="rect212" />
  <path
     d="M640 316V301C640 299.895 639.105 299 638 299C636.895 299 636 299.895 636 301V318C636 321.314 638.686 324 642 324H666C669.314 324 672 321.314 672 318V301C672 299.895 671.105 299 670 299C668.895 299 668 299.895 668 301V316C668 318.209 666.209 320 664 320H644C641.791 320 640 318.209 640 316Z"
     fill="#F1F2F5"
     id="path214" />
  <rect
     x="694"
     y="296"
     width="24"
     height="22"
     rx="4"
     fill="#F1F2F5"
     id="rect216" />
  <path
     d="M692 316V301C692 299.895 691.105 299 690 299C688.895 299 688 299.895 688 301V318C688 321.314 690.686 324 694 324H718C721.314 324 724 321.314 724 318V301C724 299.895 723.105 299 722 299C720.895 299 720 299.895 720 301V316C720 318.209 718.209 320 716 320H696C693.791 320 692 318.209 692 316Z"
     fill="#F1F2F5"
     id="path218" />
  <rect
     x="746"
     y="296"
     width="24"
     height="22"
     rx="4"
     fill="#F1F2F5"
     id="rect220" />
  <path
     d="M744 316V301C744 299.895 743.105 299 742 299C740.895 299 740 299.895 740 301V318C740 321.314 742.686 324 746 324H770C773.314 324 776 321.314 776 318V301C776 299.895 775.105 299 774 299C772.895 299 772 299.895 772 301V316C772 318.209 770.209 320 768 320H748C745.791 320 744 318.209 744 316Z"
     fill="#F1F2F5"
     id="path222" />
  <rect
     x="226"
     y="340"
     width="24"
     height="22"
     rx="4"
     fill="#F1F2F5"
     id="rect224" />
  <path
     d="M224 360V345C224 343.895 223.105 343 222 343C220.895 343 220 343.895 220 345V362C220 365.314 222.686 368 226 368H250C253.314 368 256 365.314 256 362V345C256 343.895 255.105 343 254 343C252.895 343 252 343.895 252 345V360C252 362.209 250.209 364 248 364H228C225.791 364 224 362.209 224 360Z"
     fill="#F1F2F5"
     id="path226" />
  <rect
     x="278"
     y="340"
     width="24"
     height="22"
     rx="4"
     fill="#F1F2F5"
     id="rect228" />
  <path
     d="M276 360V345C276 343.895 275.105 343 274 343C272.895 343 272 343.895 272 345V362C272 365.314 274.686 368 278 368H302C305.314 368 308 365.314 308 362V345C308 343.895 307.105 343 306 343C304.895 343 304 343.895 304 345V360C304 362.209 302.209 364 300 364H280C277.791 364 276 362.209 276 360Z"
     fill="#F1F2F5"
     id="path230" />
  <rect
     x="330"
     y="340"
     width="24"
     height="28"
     rx="4"
     fill="#F7F8FA"
     id="rect232" />
  <rect
     x="382"
     y="340"
     width="24"
     height="22"
     rx="4"
     fill="#F1F2F5"
     id="rect234" />
  <path
     d="M380 360V345C380 343.895 379.105 343 378 343C376.895 343 376 343.895 376 345V362C376 365.314 378.686 368 382 368H406C409.314 368 412 365.314 412 362V345C412 343.895 411.105 343 410 343C408.895 343 408 343.895 408 345V360C408 362.209 406.209 364 404 364H384C381.791 364 380 362.209 380 360Z"
     fill="#F1F2F5"
     id="path236" />
  <rect
     x="434"
     y="340"
     width="24"
     height="22"
     rx="4"
     fill="#F1F2F5"
     id="rect238" />
  <path
     d="M432 360V345C432 343.895 431.105 343 430 343C428.895 343 428 343.895 428 345V362C428 365.314 430.686 368 434 368H458C461.314 368 464 365.314 464 362V345C464 343.895 463.105 343 462 343C460.895 343 460 343.895 460 345V360C460 362.209 458.209 364 456 364H436C433.791 364 432 362.209 432 360Z"
     fill="#F1F2F5"
     id="path240" />
  <rect
     x="486"
     y="340"
     width="24"
     height="22"
     rx="4"
     fill="#F1F2F5"
     id="rect242" />
  <path
     d="M484 360V345C484 343.895 483.105 343 482 343C480.895 343 480 343.895 480 345V362C480 365.314 482.686 368 486 368H510C513.314 368 516 365.314 516 362V345C516 343.895 515.105 343 514 343C512.895 343 512 343.895 512 345V360C512 362.209 510.209 364 508 364H488C485.791 364 484 362.209 484 360Z"
     fill="#F1F2F5"
     id="path244" />
  <rect
     x="590"
     y="340"
     width="24"
     height="22"
     rx="4"
     fill="#F1F2F5"
     id="rect246" />
  <path
     d="M588 360V345C588 343.895 587.105 343 586 343C584.895 343 584 343.895 584 345V362C584 365.314 586.686 368 590 368H614C617.314 368 620 365.314 620 362V345C620 343.895 619.105 343 618 343C616.895 343 616 343.895 616 345V360C616 362.209 614.209 364 612 364H592C589.791 364 588 362.209 588 360Z"
     fill="#F1F2F5"
     id="path248" />
  <rect
     x="642"
     y="340"
     width="24"
     height="22"
     rx="4"
     fill="#F1F2F5"
     id="rect250" />
  <path
     d="M640 360V345C640 343.895 639.105 343 638 343C636.895 343 636 343.895 636 345V362C636 365.314 638.686 368 642 368H666C669.314 368 672 365.314 672 362V345C672 343.895 671.105 343 670 343C668.895 343 668 343.895 668 345V360C668 362.209 666.209 364 664 364H644C641.791 364 640 362.209 640 360Z"
     fill="#F1F2F5"
     id="path252" />
  <rect
     x="694"
     y="340"
     width="24"
     height="22"
     rx="4"
     fill="#F1F2F5"
     id="rect254" />
  <path
     d="M692 360V345C692 343.895 691.105 343 690 343C688.895 343 688 343.895 688 345V362C688 365.314 690.686 368 694 368H718C721.314 368 724 365.314 724 362V345C724 343.895 723.105 343 722 343C720.895 343 720 343.895 720 345V360C720 362.209 718.209 364 716 364H696C693.791 364 692 362.209 692 360Z"
     fill="#F1F2F5"
     id="path256" />
  <rect
     x="746"
     y="340"
     width="24"
     height="28"
     rx="4"
     fill="#F7F8FA"
     id="rect258" />
  <rect
     x="382"
     y="384"
     width="24"
     height="22"
     rx="4"
     fill="#F1F2F5"
     id="rect260" />
  <path
     d="M380 404V389C380 387.895 379.105 387 378 387C376.895 387 376 387.895 376 389V406C376 409.314 378.686 412 382 412H406C409.314 412 412 409.314 412 406V389C412 387.895 411.105 387 410 387C408.895 387 408 387.895 408 389V404C408 406.209 406.209 408 404 408H384C381.791 408 380 406.209 380 404Z"
     fill="#F1F2F5"
     id="path262" />
  <rect
     x="434"
     y="384"
     width="24"
     height="22"
     rx="4"
     fill="#F1F2F5"
     id="rect264" />
  <path
     d="M432 404V389C432 387.895 431.105 387 430 387C428.895 387 428 387.895 428 389V406C428 409.314 430.686 412 434 412H458C461.314 412 464 409.314 464 406V389C464 387.895 463.105 387 462 387C460.895 387 460 387.895 460 389V404C460 406.209 458.209 408 456 408H436C433.791 408 432 406.209 432 404Z"
     fill="#F1F2F5"
     id="path266" />
  <rect
     x="486"
     y="384"
     width="24"
     height="22"
     rx="4"
     fill="#F1F2F5"
     id="rect268" />
  <path
     d="M484 404V389C484 387.895 483.105 387 482 387C480.895 387 480 387.895 480 389V406C480 409.314 482.686 412 486 412H510C513.314 412 516 409.314 516 406V389C516 387.895 515.105 387 514 387C512.895 387 512 387.895 512 389V404C512 406.209 510.209 408 508 408H488C485.791 408 484 406.209 484 404Z"
     fill="#F1F2F5"
     id="path270" />
  <rect
     x="590"
     y="384"
     width="24"
     height="22"
     rx="4"
     fill="#F1F2F5"
     id="rect272" />
  <path
     d="M588 404V389C588 387.895 587.105 387 586 387C584.895 387 584 387.895 584 389V406C584 409.314 586.686 412 590 412H614C617.314 412 620 409.314 620 406V389C620 387.895 619.105 387 618 387C616.895 387 616 387.895 616 389V404C616 406.209 614.209 408 612 408H592C589.791 408 588 406.209 588 404Z"
     fill="#F1F2F5"
     id="path274" />
  <rect
     x="642"
     y="384"
     width="24"
     height="22"
     rx="4"
     fill="#F1F2F5"
     id="rect276" />
  <path
     d="M640 404V389C640 387.895 639.105 387 638 387C636.895 387 636 387.895 636 389V406C636 409.314 638.686 412 642 412H666C669.314 412 672 409.314 672 406V389C672 387.895 671.105 387 670 387C668.895 387 668 387.895 668 389V404C668 406.209 666.209 408 664 408H644C641.791 408 640 406.209 640 404Z"
     fill="#F1F2F5"
     id="path278" />
  <rect
     x="356"
     y="428"
     width="24"
     height="22"
     rx="4"
     fill="#F1F2F5"
     id="rect280" />
  <path
     d="M354 448V433C354 431.895 353.105 431 352 431C350.895 431 350 431.895 350 433V450C350 453.314 352.686 456 356 456H380C383.314 456 386 453.314 386 450V433C386 431.895 385.105 431 384 431C382.895 431 382 431.895 382 433V448C382 450.209 380.209 452 378 452H358C355.791 452 354 450.209 354 448Z"
     fill="#F1F2F5"
     id="path282" />
  <rect
     x="408"
     y="428"
     width="24"
     height="22"
     rx="4"
     fill="#F1F2F5"
     id="rect284" />
  <path
     d="M406 448V433C406 431.895 405.105 431 404 431C402.895 431 402 431.895 402 433V450C402 453.314 404.686 456 408 456H432C435.314 456 438 453.314 438 450V433C438 431.895 437.105 431 436 431C434.895 431 434 431.895 434 433V448C434 450.209 432.209 452 430 452H410C407.791 452 406 450.209 406 448Z"
     fill="#F1F2F5"
     id="path286" />
  <rect
     x="460"
     y="428"
     width="24"
     height="22"
     rx="4"
     fill="#F1F2F5"
     id="rect288" />
  <path
     d="M458 448V433C458 431.895 457.105 431 456 431C454.895 431 454 431.895 454 433V450C454 453.314 456.686 456 460 456H484C487.314 456 490 453.314 490 450V433C490 431.895 489.105 431 488 431C486.895 431 486 431.895 486 433V448C486 450.209 484.209 452 482 452H462C459.791 452 458 450.209 458 448Z"
     fill="#F1F2F5"
     id="path290" />
  <rect
     x="564"
     y="428"
     width="24"
     height="22"
     rx="4"
     fill="#F1F2F5"
     id="rect292" />
  <path
     d="M562 448V433C562 431.895 561.105 431 560 431C558.895 431 558 431.895 558 433V450C558 453.314 560.686 456 564 456H588C591.314 456 594 453.314 594 450V433C594 431.895 593.105 431 592 431C590.895 431 590 431.895 590 433V448C590 450.209 588.209 452 586 452H566C563.791 452 562 450.209 562 448Z"
     fill="#F1F2F5"
     id="path294" />
  <rect
     x="616"
     y="428"
     width="24"
     height="22"
     rx="4"
     fill="#F1F2F5"
     id="rect296" />
  <path
     d="M614 448V433C614 431.895 613.105 431 612 431C610.895 431 610 431.895 610 433V450C610 453.314 612.686 456 616 456H640C643.314 456 646 453.314 646 450V433C646 431.895 645.105 431 644 431C642.895 431 642 431.895 642 433V448C642 450.209 640.209 452 638 452H618C615.791 452 614 450.209 614 448Z"
     fill="#F1F2F5"
     id="path298" />
  <rect
     x="668"
     y="428"
     width="24"
     height="22"
     rx="4"
     fill="#F1F2F5"
     id="rect300" />
  <path
     d="M666 448V433C666 431.895 665.105 431 664 431C662.895 431 662 431.895 662 433V450C662 453.314 664.686 456 668 456H692C695.314 456 698 453.314 698 450V433C698 431.895 697.105 431 696 431C694.895 431 694 431.895 694 433V448C694 450.209 692.209 452 690 452H670C667.791 452 666 450.209 666 448Z"
     fill="#F1F2F5"
     id="path302" />
  <rect
     x="356"
     y="472"
     width="24"
     height="22"
     rx="4"
     fill="#F1F2F5"
     id="rect304" />
  <path
     d="M354 492V477C354 475.895 353.105 475 352 475C350.895 475 350 475.895 350 477V494C350 497.314 352.686 500 356 500H380C383.314 500 386 497.314 386 494V477C386 475.895 385.105 475 384 475C382.895 475 382 475.895 382 477V492C382 494.209 380.209 496 378 496H358C355.791 496 354 494.209 354 492Z"
     fill="#F1F2F5"
     id="path306" />
  <rect
     x="408"
     y="472"
     width="24"
     height="22"
     rx="4"
     fill="#F1F2F5"
     id="rect308" />
  <path
     d="M406 492V477C406 475.895 405.105 475 404 475C402.895 475 402 475.895 402 477V494C402 497.314 404.686 500 408 500H432C435.314 500 438 497.314 438 494V477C438 475.895 437.105 475 436 475C434.895 475 434 475.895 434 477V492C434 494.209 432.209 496 430 496H410C407.791 496 406 494.209 406 492Z"
     fill="#F1F2F5"
     id="path310" />
  <rect
     x="460"
     y="472"
     width="24"
     height="22"
     rx="4"
     fill="#F1F2F5"
     id="rect312" />
  <path
     d="M458 492V477C458 475.895 457.105 475 456 475C454.895 475 454 475.895 454 477V494C454 497.314 456.686 500 460 500H484C487.314 500 490 497.314 490 494V477C490 475.895 489.105 475 488 475C486.895 475 486 475.895 486 477V492C486 494.209 484.209 496 482 496H462C459.791 496 458 494.209 458 492Z"
     fill="#F1F2F5"
     id="path314" />
  <rect
     x="564"
     y="472"
     width="24"
     height="22"
     rx="4"
     fill="#F1F2F5"
     id="rect316" />
  <path
     d="M562 492V477C562 475.895 561.105 475 560 475C558.895 475 558 475.895 558 477V494C558 497.314 560.686 500 564 500H588C591.314 500 594 497.314 594 494V477C594 475.895 593.105 475 592 475C590.895 475 590 475.895 590 477V492C590 494.209 588.209 496 586 496H566C563.791 496 562 494.209 562 492Z"
     fill="#F1F2F5"
     id="path318" />
  <rect
     x="616"
     y="472"
     width="24"
     height="22"
     rx="4"
     fill="#F1F2F5"
     id="rect320" />
  <path
     d="M614 492V477C614 475.895 613.105 475 612 475C610.895 475 610 475.895 610 477V494C610 497.314 612.686 500 616 500H640C643.314 500 646 497.314 646 494V477C646 475.895 645.105 475 644 475C642.895 475 642 475.895 642 477V492C642 494.209 640.209 496 638 496H618C615.791 496 614 494.209 614 492Z"
     fill="#F1F2F5"
     id="path322" />
  <rect
     x="668"
     y="472"
     width="24"
     height="22"
     rx="4"
     fill="#F1F2F5"
     id="rect324" />
  <path
     d="M666 492V477C666 475.895 665.105 475 664 475C662.895 475 662 475.895 662 477V494C662 497.314 664.686 500 668 500H692C695.314 500 698 497.314 698 494V477C698 475.895 697.105 475 696 475C694.895 475 694 475.895 694 477V492C694 494.209 692.209 496 690 496H670C667.791 496 666 494.209 666 492Z"
     fill="#F1F2F5"
     id="path326" />
  <rect
     x="356"
     y="516"
     width="24"
     height="22"
     rx="4"
     fill="#F1F2F5"
     id="rect328" />
  <path
     d="M354 536V521C354 519.895 353.105 519 352 519C350.895 519 350 519.895 350 521V538C350 541.314 352.686 544 356 544H380C383.314 544 386 541.314 386 538V521C386 519.895 385.105 519 384 519C382.895 519 382 519.895 382 521V536C382 538.209 380.209 540 378 540H358C355.791 540 354 538.209 354 536Z"
     fill="#F1F2F5"
     id="path330" />
  <rect
     x="408"
     y="516"
     width="24"
     height="22"
     rx="4"
     fill="#F1F2F5"
     id="rect332" />
  <path
     d="M406 536V521C406 519.895 405.105 519 404 519C402.895 519 402 519.895 402 521V538C402 541.314 404.686 544 408 544H432C435.314 544 438 541.314 438 538V521C438 519.895 437.105 519 436 519C434.895 519 434 519.895 434 521V536C434 538.209 432.209 540 430 540H410C407.791 540 406 538.209 406 536Z"
     fill="#F1F2F5"
     id="path334" />
  <rect
     x="460"
     y="516"
     width="24"
     height="22"
     rx="4"
     fill="#F1F2F5"
     id="rect336" />
  <path
     d="M458 536V521C458 519.895 457.105 519 456 519C454.895 519 454 519.895 454 521V538C454 541.314 456.686 544 460 544H484C487.314 544 490 541.314 490 538V521C490 519.895 489.105 519 488 519C486.895 519 486 519.895 486 521V536C486 538.209 484.209 540 482 540H462C459.791 540 458 538.209 458 536Z"
     fill="#F1F2F5"
     id="path338" />
  <rect
     x="564"
     y="516"
     width="24"
     height="22"
     rx="4"
     fill="#F1F2F5"
     id="rect340" />
  <path
     d="M562 536V521C562 519.895 561.105 519 560 519C558.895 519 558 519.895 558 521V538C558 541.314 560.686 544 564 544H588C591.314 544 594 541.314 594 538V521C594 519.895 593.105 519 592 519C590.895 519 590 519.895 590 521V536C590 538.209 588.209 540 586 540H566C563.791 540 562 538.209 562 536Z"
     fill="#F1F2F5"
     id="path342" />
  <rect
     x="616"
     y="516"
     width="24"
     height="22"
     rx="4"
     fill="#F1F2F5"
     id="rect344" />
  <path
     d="M614 536V521C614 519.895 613.105 519 612 519C610.895 519 610 519.895 610 521V538C610 541.314 612.686 544 616 544H640C643.314 544 646 541.314 646 538V521C646 519.895 645.105 519 644 519C642.895 519 642 519.895 642 521V536C642 538.209 640.209 540 638 540H618C615.791 540 614 538.209 614 536Z"
     fill="#F1F2F5"
     id="path346" />
  <rect
     x="668"
     y="516"
     width="24"
     height="22"
     rx="4"
     fill="#F1F2F5"
     id="rect348" />
  <path
     d="M666 536V521C666 519.895 665.105 519 664 519C662.895 519 662 519.895 662 521V538C662 541.314 664.686 544 668 544H692C695.314 544 698 541.314 698 538V521C698 519.895 697.105 519 696 519C694.895 519 694 519.895 694 521V536C694 538.209 692.209 540 690 540H670C667.791 540 666 538.209 666 536Z"
     fill="#F1F2F5"
     id="path350" />
  <rect
     x="356"
     y="560"
     width="24"
     height="22"
     rx="4"
     fill="#F1F2F5"
     id="rect352" />
  <path
     d="M354 580V565C354 563.895 353.105 563 352 563C350.895 563 350 563.895 350 565V582C350 585.314 352.686 588 356 588H380C383.314 588 386 585.314 386 582V565C386 563.895 385.105 563 384 563C382.895 563 382 563.895 382 565V580C382 582.209 380.209 584 378 584H358C355.791 584 354 582.209 354 580Z"
     fill="#F1F2F5"
     id="path354" />
  <rect
     x="408"
     y="560"
     width="24"
     height="22"
     rx="4"
     fill="#F1F2F5"
     id="rect356" />
  <path
     d="M406 580V565C406 563.895 405.105 563 404 563C402.895 563 402 563.895 402 565V582C402 585.314 404.686 588 408 588H432C435.314 588 438 585.314 438 582V565C438 563.895 437.105 563 436 563C434.895 563 434 563.895 434 565V580C434 582.209 432.209 584 430 584H410C407.791 584 406 582.209 406 580Z"
     fill="#F1F2F5"
     id="path358" />
  <rect
     x="460"
     y="560"
     width="24"
     height="22"
     rx="4"
     fill="#F1F2F5"
     id="rect360" />
  <path
     d="M458 580V565C458 563.895 457.105 563 456 563C454.895 563 454 563.895 454 565V582C454 585.314 456.686 588 460 588H484C487.314 588 490 585.314 490 582V565C490 563.895 489.105 563 488 563C486.895 563 486 563.895 486 565V580C486 582.209 484.209 584 482 584H462C459.791 584 458 582.209 458 580Z"
     fill="#F1F2F5"
     id="path362" />
  <rect
     x="564"
     y="560"
     width="24"
     height="22"
     rx="4"
     fill="#F1F2F5"
     id="rect364" />
  <path
     d="M562 580V565C562 563.895 561.105 563 560 563C558.895 563 558 563.895 558 565V582C558 585.314 560.686 588 564 588H588C591.314 588 594 585.314 594 582V565C594 563.895 593.105 563 592 563C590.895 563 590 563.895 590 565V580C590 582.209 588.209 584 586 584H566C563.791 584 562 582.209 562 580Z"
     fill="#F1F2F5"
     id="path366" />
  <rect
     x="616"
     y="560"
     width="24"
     height="22"
     rx="4"
     fill="#F1F2F5"
     id="rect368" />
  <path
     d="M614 580V565C614 563.895 613.105 563 612 563C610.895 563 610 563.895 610 565V582C610 585.314 612.686 588 616 588H640C643.314 588 646 585.314 646 582V565C646 563.895 645.105 563 644 563C642.895 563 642 563.895 642 565V580C642 582.209 640.209 584 638 584H618C615.791 584 614 582.209 614 580Z"
     fill="#F1F2F5"
     id="path370" />
  <rect
     x="668"
     y="560"
     width="24"
     height="22"
     rx="4"
     fill="#F1F2F5"
     id="rect372" />
  <path
     d="M666 580V565C666 563.895 665.105 563 664 563C662.895 563 662 563.895 662 565V582C662 585.314 664.686 588 668 588H692C695.314 588 698 585.314 698 582V565C698 563.895 697.105 563 696 563C694.895 563 694 563.895 694 565V580C694 582.209 692.209 584 690 584H670C667.791 584 666 582.209 666 580Z"
     fill="#F1F2F5"
     id="path374" />
  <g
     filter="url(#filter4_dd_1813_202797)"
     id="g420">
    <rect
       x="24"
       y="548"
       width="20"
       height="20"
       rx="6"
       fill="#00985F"
       id="rect416" />
    <rect
       x="25.5"
       y="549.5"
       width="17"
       height="17"
       rx="4.5"
       stroke="white"
       stroke-width="3"
       id="rect418" />
  </g>
  <path
     d="M53.176 552.962H56.578C57.6793 552.962 58.5147 553.149 59.084 553.522C59.6627 553.895 59.952 554.525 59.952 555.412C59.952 555.776 59.9007 556.093 59.798 556.364C59.7047 556.625 59.5693 556.854 59.392 557.05C59.224 557.237 59.014 557.391 58.762 557.512C58.5193 557.633 58.2487 557.727 57.95 557.792C58.734 557.885 59.322 558.114 59.714 558.478C60.1153 558.833 60.316 559.374 60.316 560.102C60.316 560.625 60.218 561.073 60.022 561.446C59.8353 561.81 59.574 562.109 59.238 562.342C58.902 562.566 58.5053 562.734 58.048 562.846C57.5907 562.949 57.0913 563 56.55 563H53.176V552.962ZM54.492 554.166V557.246H56.48C56.7973 557.246 57.0867 557.213 57.348 557.148C57.6093 557.073 57.8333 556.966 58.02 556.826C58.2067 556.677 58.3513 556.495 58.454 556.28C58.566 556.056 58.622 555.79 58.622 555.482C58.622 554.969 58.4447 554.623 58.09 554.446C57.7353 554.259 57.2313 554.166 56.578 554.166H54.492ZM54.492 558.436V561.81H56.55C56.9047 561.81 57.2267 561.782 57.516 561.726C57.8053 561.67 58.0527 561.577 58.258 561.446C58.4727 561.315 58.636 561.143 58.748 560.928C58.8693 560.713 58.93 560.447 58.93 560.13C58.93 559.495 58.7247 559.057 58.314 558.814C57.9127 558.562 57.2733 558.436 56.396 558.436H54.492ZM63.9074 559.906H63.2634V563H62.0314V555.734H63.2634V558.856H63.9634L66.5114 555.734H67.9114L64.9294 559.318L67.9674 563H66.4694L63.9074 559.906ZM69.8239 560.746C69.9545 560.27 70.0385 559.626 70.0759 558.814C70.1132 558.002 70.1319 556.975 70.1319 555.734H75.0179V563H73.7719V556.784H71.2939C71.2845 557.783 71.2519 558.669 71.1959 559.444C71.1492 560.219 71.0419 560.872 70.8739 561.404C70.7152 561.936 70.4772 562.342 70.1599 562.622C69.8519 562.893 69.4365 563.028 68.9139 563.028C68.8765 563.028 68.8392 563.028 68.8019 563.028C68.7645 563.028 68.7225 563.023 68.6759 563.014V561.796C68.7225 561.805 68.7832 561.81 68.8579 561.81C69.3339 561.81 69.6559 561.455 69.8239 560.746Z"
     fill="black"
     fill-opacity="0.6"
     id="path422" />
  <g
     filter="url(#filter5_dd_1813_202797)"
     id="g428">
    <rect
       x="24"
       y="578"
       width="20"
       height="20"
       rx="6"
       fill="#E00000"
       id="rect424" />
    <rect
       x="25.5"
       y="579.5"
       width="17"
       height="17"
       rx="4.5"
       stroke="white"
       stroke-width="3"
       id="rect426" />
  </g>
  <path
     d="M53.176 582.962H56.578C57.6793 582.962 58.5147 583.149 59.084 583.522C59.6627 583.895 59.952 584.525 59.952 585.412C59.952 585.776 59.9007 586.093 59.798 586.364C59.7047 586.625 59.5693 586.854 59.392 587.05C59.224 587.237 59.014 587.391 58.762 587.512C58.5193 587.633 58.2487 587.727 57.95 587.792C58.734 587.885 59.322 588.114 59.714 588.478C60.1153 588.833 60.316 589.374 60.316 590.102C60.316 590.625 60.218 591.073 60.022 591.446C59.8353 591.81 59.574 592.109 59.238 592.342C58.902 592.566 58.5053 592.734 58.048 592.846C57.5907 592.949 57.0913 593 56.55 593H53.176V582.962ZM54.492 584.166V587.246H56.48C56.7973 587.246 57.0867 587.213 57.348 587.148C57.6093 587.073 57.8333 586.966 58.02 586.826C58.2067 586.677 58.3513 586.495 58.454 586.28C58.566 586.056 58.622 585.79 58.622 585.482C58.622 584.969 58.4447 584.623 58.09 584.446C57.7353 584.259 57.2313 584.166 56.578 584.166H54.492ZM54.492 588.436V591.81H56.55C56.9047 591.81 57.2267 591.782 57.516 591.726C57.8053 591.67 58.0527 591.577 58.258 591.446C58.4727 591.315 58.636 591.143 58.748 590.928C58.8693 590.713 58.93 590.447 58.93 590.13C58.93 589.495 58.7247 589.057 58.314 588.814C57.9127 588.562 57.2733 588.436 56.396 588.436H54.492ZM67.4074 590.578C67.4074 590.998 67.3328 591.362 67.1834 591.67C67.0341 591.978 66.8241 592.23 66.5534 592.426C66.2828 592.622 65.9608 592.767 65.5874 592.86C65.2141 592.953 64.8081 593 64.3694 593H62.0314V585.734H63.2634V588.268H64.4534C65.3774 588.268 66.1008 588.45 66.6234 588.814C67.1461 589.178 67.4074 589.766 67.4074 590.578ZM69.6894 593H68.4574V585.734H69.6894V593ZM63.2634 589.318V591.95H64.3694C64.9014 591.95 65.3308 591.852 65.6574 591.656C65.9934 591.451 66.1614 591.115 66.1614 590.648C66.1614 590.172 66.0121 589.831 65.7134 589.626C65.4148 589.421 64.9948 589.318 64.4534 589.318H63.2634ZM73.5871 589.906H72.9431V593H71.7111V585.734H72.9431V588.856H73.6431L76.1911 585.734H77.5911L74.6091 589.318L77.6471 593H76.1491L73.5871 589.906ZM79.5035 590.746C79.6342 590.27 79.7182 589.626 79.7555 588.814C79.7929 588.002 79.8115 586.975 79.8115 585.734H84.6975V593H83.4515V586.784H80.9735C80.9642 587.783 80.9315 588.669 80.8755 589.444C80.8289 590.219 80.7215 590.872 80.5535 591.404C80.3949 591.936 80.1569 592.342 79.8395 592.622C79.5315 592.893 79.1162 593.028 78.5935 593.028C78.5562 593.028 78.5189 593.028 78.4815 593.028C78.4442 593.028 78.4022 593.023 78.3555 593.014V591.796C78.4022 591.805 78.4629 591.81 78.5375 591.81C79.0135 591.81 79.3355 591.455 79.5035 590.746Z"
     fill="black"
     fill-opacity="0.6"
     id="path430" />
  <defs
     id="defs726">
    <filter
       id="filter0_dd_1813_202797"
       x="232"
       y="227"
       width="68"
       height="68"
       filterUnits="userSpaceOnUse"
       color-interpolation-filters="sRGB">
      <feFlood
         flood-opacity="0"
         result="BackgroundImageFix"
         id="feFlood462" />
      <feColorMatrix
         in="SourceAlpha"
         type="matrix"
         values="0 0 0 0 0 0 0 0 0 0 0 0 0 0 0 0 0 0 127 0"
         result="hardAlpha"
         id="feColorMatrix464" />
      <feMorphology
         radius="2"
         operator="erode"
         in="SourceAlpha"
         result="effect1_dropShadow_1813_202797"
         id="feMorphology466" />
      <feOffset
         dy="6"
         id="feOffset468" />
      <feGaussianBlur
         stdDeviation="6"
         id="feGaussianBlur470" />
      <feColorMatrix
         type="matrix"
         values="0 0 0 0 0 0 0 0 0 0.172549 0 0 0 0 0.368627 0 0 0 0.15 0"
         id="feColorMatrix472" />
      <feBlend
         mode="normal"
         in2="BackgroundImageFix"
         result="effect1_dropShadow_1813_202797"
         id="feBlend474" />
      <feColorMatrix
         in="SourceAlpha"
         type="matrix"
         values="0 0 0 0 0 0 0 0 0 0 0 0 0 0 0 0 0 0 127 0"
         result="hardAlpha"
         id="feColorMatrix476" />
      <feMorphology
         radius="1"
         operator="dilate"
         in="SourceAlpha"
         result="effect2_dropShadow_1813_202797"
         id="feMorphology478" />
      <feOffset
         id="feOffset480" />
      <feColorMatrix
         type="matrix"
         values="0 0 0 0 0 0 0 0 0 0.172549 0 0 0 0 0.368627 0 0 0 0.1 0"
         id="feColorMatrix482" />
      <feBlend
         mode="normal"
         in2="effect1_dropShadow_1813_202797"
         result="effect2_dropShadow_1813_202797"
         id="feBlend484" />
      <feBlend
         mode="normal"
         in="SourceGraphic"
         in2="effect2_dropShadow_1813_202797"
         result="shape"
         id="feBlend486" />
    </filter>
    <filter
       id="filter1_dd_1813_202797"
       x="232"
       y="107"
       width="68"
       height="68"
       filterUnits="userSpaceOnUse"
       color-interpolation-filters="sRGB">
      <feFlood
         flood-opacity="0"
         result="BackgroundImageFix"
         id="feFlood489" />
      <feColorMatrix
         in="SourceAlpha"
         type="matrix"
         values="0 0 0 0 0 0 0 0 0 0 0 0 0 0 0 0 0 0 127 0"
         result="hardAlpha"
         id="feColorMatrix491" />
      <feMorphology
         radius="2"
         operator="erode"
         in="SourceAlpha"
         result="effect1_dropShadow_1813_202797"
         id="feMorphology493" />
      <feOffset
         dy="6"
         id="feOffset495" />
      <feGaussianBlur
         stdDeviation="6"
         id="feGaussianBlur497" />
      <feColorMatrix
         type="matrix"
         values="0 0 0 0 0 0 0 0 0 0.172549 0 0 0 0 0.368627 0 0 0 0.15 0"
         id="feColorMatrix499" />
      <feBlend
         mode="normal"
         in2="BackgroundImageFix"
         result="effect1_dropShadow_1813_202797"
         id="feBlend501" />
      <feColorMatrix
         in="SourceAlpha"
         type="matrix"
         values="0 0 0 0 0 0 0 0 0 0 0 0 0 0 0 0 0 0 127 0"
         result="hardAlpha"
         id="feColorMatrix503" />
      <feMorphology
         radius="1"
         operator="dilate"
         in="SourceAlpha"
         result="effect2_dropShadow_1813_202797"
         id="feMorphology505" />
      <feOffset
         id="feOffset507" />
      <feColorMatrix
         type="matrix"
         values="0 0 0 0 0 0 0 0 0 0.172549 0 0 0 0 0.368627 0 0 0 0.1 0"
         id="feColorMatrix509" />
      <feBlend
         mode="normal"
         in2="effect1_dropShadow_1813_202797"
         result="effect2_dropShadow_1813_202797"
         id="feBlend511" />
      <feBlend
         mode="normal"
         in="SourceGraphic"
         in2="effect2_dropShadow_1813_202797"
         result="shape"
         id="feBlend513" />
    </filter>
    <filter
       id="filter2_dd_1813_202797"
       x="232"
       y="467"
       width="68"
       height="68"
       filterUnits="userSpaceOnUse"
       color-interpolation-filters="sRGB">
      <feFlood
         flood-opacity="0"
         result="BackgroundImageFix"
         id="feFlood516" />
      <feColorMatrix
         in="SourceAlpha"
         type="matrix"
         values="0 0 0 0 0 0 0 0 0 0 0 0 0 0 0 0 0 0 127 0"
         result="hardAlpha"
         id="feColorMatrix518" />
      <feMorphology
         radius="2"
         operator="erode"
         in="SourceAlpha"
         result="effect1_dropShadow_1813_202797"
         id="feMorphology520" />
      <feOffset
         dy="6"
         id="feOffset522" />
      <feGaussianBlur
         stdDeviation="6"
         id="feGaussianBlur524" />
      <feColorMatrix
         type="matrix"
         values="0 0 0 0 0 0 0 0 0 0.172549 0 0 0 0 0.368627 0 0 0 0.15 0"
         id="feColorMatrix526" />
      <feBlend
         mode="normal"
         in2="BackgroundImageFix"
         result="effect1_dropShadow_1813_202797"
         id="feBlend528" />
      <feColorMatrix
         in="SourceAlpha"
         type="matrix"
         values="0 0 0 0 0 0 0 0 0 0 0 0 0 0 0 0 0 0 127 0"
         result="hardAlpha"
         id="feColorMatrix530" />
      <feMorphology
         radius="1"
         operator="dilate"
         in="SourceAlpha"
         result="effect2_dropShadow_1813_202797"
         id="feMorphology532" />
      <feOffset
         id="feOffset534" />
      <feColorMatrix
         type="matrix"
         values="0 0 0 0 0 0 0 0 0 0.172549 0 0 0 0 0.368627 0 0 0 0.1 0"
         id="feColorMatrix536" />
      <feBlend
         mode="normal"
         in2="effect1_dropShadow_1813_202797"
         result="effect2_dropShadow_1813_202797"
         id="feBlend538" />
      <feBlend
         mode="normal"
         in="SourceGraphic"
         in2="effect2_dropShadow_1813_202797"
         result="shape"
         id="feBlend540" />
    </filter>
    <filter
       id="filter3_dd_1813_202797"
       x="562"
       y="134"
       width="68"
       height="68"
       filterUnits="userSpaceOnUse"
       color-interpolation-filters="sRGB">
      <feFlood
         flood-opacity="0"
         result="BackgroundImageFix"
         id="feFlood543" />
      <feColorMatrix
         in="SourceAlpha"
         type="matrix"
         values="0 0 0 0 0 0 0 0 0 0 0 0 0 0 0 0 0 0 127 0"
         result="hardAlpha"
         id="feColorMatrix545" />
      <feMorphology
         radius="2"
         operator="erode"
         in="SourceAlpha"
         result="effect1_dropShadow_1813_202797"
         id="feMorphology547" />
      <feOffset
         dy="6"
         id="feOffset549" />
      <feGaussianBlur
         stdDeviation="6"
         id="feGaussianBlur551" />
      <feColorMatrix
         type="matrix"
         values="0 0 0 0 0 0 0 0 0 0.172549 0 0 0 0 0.368627 0 0 0 0.15 0"
         id="feColorMatrix553" />
      <feBlend
         mode="normal"
         in2="BackgroundImageFix"
         result="effect1_dropShadow_1813_202797"
         id="feBlend555" />
      <feColorMatrix
         in="SourceAlpha"
         type="matrix"
         values="0 0 0 0 0 0 0 0 0 0 0 0 0 0 0 0 0 0 127 0"
         result="hardAlpha"
         id="feColorMatrix557" />
      <feMorphology
         radius="1"
         operator="dilate"
         in="SourceAlpha"
         result="effect2_dropShadow_1813_202797"
         id="feMorphology559" />
      <feOffset
         id="feOffset561" />
      <feColorMatrix
         type="matrix"
         values="0 0 0 0 0 0 0 0 0 0.172549 0 0 0 0 0.368627 0 0 0 0.1 0"
         id="feColorMatrix563" />
      <feBlend
         mode="normal"
         in2="effect1_dropShadow_1813_202797"
         result="effect2_dropShadow_1813_202797"
         id="feBlend565" />
      <feBlend
         mode="normal"
         in="SourceGraphic"
         in2="effect2_dropShadow_1813_202797"
         result="shape"
         id="feBlend567" />
    </filter>
    <filter
       id="filter4_dd_1813_202797"
       x="21"
       y="547"
       width="26"
       height="26"
       filterUnits="userSpaceOnUse"
       color-interpolation-filters="sRGB">
      <feFlood
         flood-opacity="0"
         result="BackgroundImageFix"
         id="feFlood570" />
      <feColorMatrix
         in="SourceAlpha"
         type="matrix"
         values="0 0 0 0 0 0 0 0 0 0 0 0 0 0 0 0 0 0 127 0"
         result="hardAlpha"
         id="feColorMatrix572" />
      <feMorphology
         radius="1"
         operator="erode"
         in="SourceAlpha"
         result="effect1_dropShadow_1813_202797"
         id="feMorphology574" />
      <feOffset
         dy="2"
         id="feOffset576" />
      <feGaussianBlur
         stdDeviation="2"
         id="feGaussianBlur578" />
      <feColorMatrix
         type="matrix"
         values="0 0 0 0 0 0 0 0 0 0.172549 0 0 0 0 0.368627 0 0 0 0.15 0"
         id="feColorMatrix580" />
      <feBlend
         mode="normal"
         in2="BackgroundImageFix"
         result="effect1_dropShadow_1813_202797"
         id="feBlend582" />
      <feColorMatrix
         in="SourceAlpha"
         type="matrix"
         values="0 0 0 0 0 0 0 0 0 0 0 0 0 0 0 0 0 0 127 0"
         result="hardAlpha"
         id="feColorMatrix584" />
      <feMorphology
         radius="1"
         operator="dilate"
         in="SourceAlpha"
         result="effect2_dropShadow_1813_202797"
         id="feMorphology586" />
      <feOffset
         id="feOffset588" />
      <feColorMatrix
         type="matrix"
         values="0 0 0 0 0 0 0 0 0 0.172549 0 0 0 0 0.368627 0 0 0 0.1 0"
         id="feColorMatrix590" />
      <feBlend
         mode="normal"
         in2="effect1_dropShadow_1813_202797"
         result="effect2_dropShadow_1813_202797"
         id="feBlend592" />
      <feBlend
         mode="normal"
         in="SourceGraphic"
         in2="effect2_dropShadow_1813_202797"
         result="shape"
         id="feBlend594" />
    </filter>
    <filter
       id="filter5_dd_1813_202797"
       x="21"
       y="577"
       width="26"
       height="26"
       filterUnits="userSpaceOnUse"
       color-interpolation-filters="sRGB">
      <feFlood
         flood-opacity="0"
         result="BackgroundImageFix"
         id="feFlood597" />
      <feColorMatrix
         in="SourceAlpha"
         type="matrix"
         values="0 0 0 0 0 0 0 0 0 0 0 0 0 0 0 0 0 0 127 0"
         result="hardAlpha"
         id="feColorMatrix599" />
      <feMorphology
         radius="1"
         operator="erode"
         in="SourceAlpha"
         result="effect1_dropShadow_1813_202797"
         id="feMorphology601" />
      <feOffset
         dy="2"
         id="feOffset603" />
      <feGaussianBlur
         stdDeviation="2"
         id="feGaussianBlur605" />
      <feColorMatrix
         type="matrix"
         values="0 0 0 0 0 0 0 0 0 0.172549 0 0 0 0 0.368627 0 0 0 0.15 0"
         id="feColorMatrix607" />
      <feBlend
         mode="normal"
         in2="BackgroundImageFix"
         result="effect1_dropShadow_1813_202797"
         id="feBlend609" />
      <feColorMatrix
         in="SourceAlpha"
         type="matrix"
         values="0 0 0 0 0 0 0 0 0 0 0 0 0 0 0 0 0 0 127 0"
         result="hardAlpha"
         id="feColorMatrix611" />
      <feMorphology
         radius="1"
         operator="dilate"
         in="SourceAlpha"
         result="effect2_dropShadow_1813_202797"
         id="feMorphology613" />
      <feOffset
         id="feOffset615" />
      <feColorMatrix
         type="matrix"
         values="0 0 0 0 0 0 0 0 0 0.172549 0 0 0 0 0.368627 0 0 0 0.1 0"
         id="feColorMatrix617" />
      <feBlend
         mode="normal"
         in2="effect1_dropShadow_1813_202797"
         result="effect2_dropShadow_1813_202797"
         id="feBlend619" />
      <feBlend
         mode="normal"
         in="SourceGraphic"
         in2="effect2_dropShadow_1813_202797"
         result="shape"
         id="feBlend621" />
    </filter>
    <filter
       id="filter6_dd_1813_202797"
       x="562"
       y="254"
       width="68"
       height="68"
       filterUnits="userSpaceOnUse"
       color-interpolation-filters="sRGB">
      <feFlood
         flood-opacity="0"
         result="BackgroundImageFix"
         id="feFlood624" />
      <feColorMatrix
         in="SourceAlpha"
         type="matrix"
         values="0 0 0 0 0 0 0 0 0 0 0 0 0 0 0 0 0 0 127 0"
         result="hardAlpha"
         id="feColorMatrix626" />
      <feMorphology
         radius="2"
         operator="erode"
         in="SourceAlpha"
         result="effect1_dropShadow_1813_202797"
         id="feMorphology628" />
      <feOffset
         dy="6"
         id="feOffset630" />
      <feGaussianBlur
         stdDeviation="6"
         id="feGaussianBlur632" />
      <feColorMatrix
         type="matrix"
         values="0 0 0 0 0 0 0 0 0 0.172549 0 0 0 0 0.368627 0 0 0 0.15 0"
         id="feColorMatrix634" />
      <feBlend
         mode="normal"
         in2="BackgroundImageFix"
         result="effect1_dropShadow_1813_202797"
         id="feBlend636" />
      <feColorMatrix
         in="SourceAlpha"
         type="matrix"
         values="0 0 0 0 0 0 0 0 0 0 0 0 0 0 0 0 0 0 127 0"
         result="hardAlpha"
         id="feColorMatrix638" />
      <feMorphology
         radius="1"
         operator="dilate"
         in="SourceAlpha"
         result="effect2_dropShadow_1813_202797"
         id="feMorphology640" />
      <feOffset
         id="feOffset642" />
      <feColorMatrix
         type="matrix"
         values="0 0 0 0 0 0 0 0 0 0.172549 0 0 0 0 0.368627 0 0 0 0.1 0"
         id="feColorMatrix644" />
      <feBlend
         mode="normal"
         in2="effect1_dropShadow_1813_202797"
         result="effect2_dropShadow_1813_202797"
         id="feBlend646" />
      <feBlend
         mode="normal"
         in="SourceGraphic"
         in2="effect2_dropShadow_1813_202797"
         result="shape"
         id="feBlend648" />
    </filter>
    <filter
       id="filter7_dd_1813_202797"
       x="562"
       y="374"
       width="68"
       height="68"
       filterUnits="userSpaceOnUse"
       color-interpolation-filters="sRGB">
      <feFlood
         flood-opacity="0"
         result="BackgroundImageFix"
         id="feFlood651" />
      <feColorMatrix
         in="SourceAlpha"
         type="matrix"
         values="0 0 0 0 0 0 0 0 0 0 0 0 0 0 0 0 0 0 127 0"
         result="hardAlpha"
         id="feColorMatrix653" />
      <feMorphology
         radius="2"
         operator="erode"
         in="SourceAlpha"
         result="effect1_dropShadow_1813_202797"
         id="feMorphology655" />
      <feOffset
         dy="6"
         id="feOffset657" />
      <feGaussianBlur
         stdDeviation="6"
         id="feGaussianBlur659" />
      <feColorMatrix
         type="matrix"
         values="0 0 0 0 0 0 0 0 0 0.172549 0 0 0 0 0.368627 0 0 0 0.15 0"
         id="feColorMatrix661" />
      <feBlend
         mode="normal"
         in2="BackgroundImageFix"
         result="effect1_dropShadow_1813_202797"
         id="feBlend663" />
      <feColorMatrix
         in="SourceAlpha"
         type="matrix"
         values="0 0 0 0 0 0 0 0 0 0 0 0 0 0 0 0 0 0 127 0"
         result="hardAlpha"
         id="feColorMatrix665" />
      <feMorphology
         radius="1"
         operator="dilate"
         in="SourceAlpha"
         result="effect2_dropShadow_1813_202797"
         id="feMorphology667" />
      <feOffset
         id="feOffset669" />
      <feColorMatrix
         type="matrix"
         values="0 0 0 0 0 0 0 0 0 0.172549 0 0 0 0 0.368627 0 0 0 0.1 0"
         id="feColorMatrix671" />
      <feBlend
         mode="normal"
         in2="effect1_dropShadow_1813_202797"
         result="effect2_dropShadow_1813_202797"
         id="feBlend673" />
      <feBlend
         mode="normal"
         in="SourceGraphic"
         in2="effect2_dropShadow_1813_202797"
         result="shape"
         id="feBlend675" />
    </filter>
    <filter
       id="filter8_dd_1813_202797"
       x="562"
       y="494"
       width="68"
       height="68"
       filterUnits="userSpaceOnUse"
       color-interpolation-filters="sRGB">
      <feFlood
         flood-opacity="0"
         result="BackgroundImageFix"
         id="feFlood678" />
      <feColorMatrix
         in="SourceAlpha"
         type="matrix"
         values="0 0 0 0 0 0 0 0 0 0 0 0 0 0 0 0 0 0 127 0"
         result="hardAlpha"
         id="feColorMatrix680" />
      <feMorphology
         radius="2"
         operator="erode"
         in="SourceAlpha"
         result="effect1_dropShadow_1813_202797"
         id="feMorphology682" />
      <feOffset
         dy="6"
         id="feOffset684" />
      <feGaussianBlur
         stdDeviation="6"
         id="feGaussianBlur686" />
      <feColorMatrix
         type="matrix"
         values="0 0 0 0 0 0 0 0 0 0.172549 0 0 0 0 0.368627 0 0 0 0.15 0"
         id="feColorMatrix688" />
      <feBlend
         mode="normal"
         in2="BackgroundImageFix"
         result="effect1_dropShadow_1813_202797"
         id="feBlend690" />
      <feColorMatrix
         in="SourceAlpha"
         type="matrix"
         values="0 0 0 0 0 0 0 0 0 0 0 0 0 0 0 0 0 0 127 0"
         result="hardAlpha"
         id="feColorMatrix692" />
      <feMorphology
         radius="1"
         operator="dilate"
         in="SourceAlpha"
         result="effect2_dropShadow_1813_202797"
         id="feMorphology694" />
      <feOffset
         id="feOffset696" />
      <feColorMatrix
         type="matrix"
         values="0 0 0 0 0 0 0 0 0 0.172549 0 0 0 0 0.368627 0 0 0 0.1 0"
         id="feColorMatrix698" />
      <feBlend
         mode="normal"
         in2="effect1_dropShadow_1813_202797"
         result="effect2_dropShadow_1813_202797"
         id="feBlend700" />
      <feBlend
         mode="normal"
         in="SourceGraphic"
         in2="effect2_dropShadow_1813_202797"
         result="shape"
         id="feBlend702" />
    </filter>
    <clipPath
       id="clip0_1813_202797">
      <rect
         width="24"
         height="24"
         fill="white"
         transform="translate(254 243)"
         id="rect705" />
    </clipPath>
    <clipPath
       id="clip1_1813_202797">
      <rect
         width="24"
         height="24"
         fill="white"
         transform="translate(254 123)"
         id="rect708" />
    </clipPath>
    <clipPath
       id="clip2_1813_202797">
      <rect
         width="24"
         height="24"
         fill="white"
         transform="translate(254 483)"
         id="rect711" />
    </clipPath>
    <clipPath
       id="clip3_1813_202797">
      <rect
         width="24"
         height="24"
         fill="white"
         transform="translate(584 150)"
         id="rect714" />
    </clipPath>
    <clipPath
       id="clip4_1813_202797">
      <rect
         width="24"
         height="24"
         fill="white"
         transform="translate(584 270)"
         id="rect717" />
    </clipPath>
    <clipPath
       id="clip5_1813_202797">
      <rect
         width="24"
         height="24"
         fill="white"
         transform="translate(584 390)"
         id="rect720" />
    </clipPath>
    <clipPath
       id="clip6_1813_202797">
      <rect
         width="24"
         height="24"
         fill="white"
         transform="translate(584 510)"
         id="rect723" />
    </clipPath>
  </defs>
</svg>
