<?xml version="1.0" encoding="UTF-8" standalone="no"?>
<svg
   width="36"
   height="36"
   viewBox="0 0 36 36"
   fill="none"
   version="1.1"
   id="svg44"
   sodipodi:docname="FanOn.svg"
   inkscape:version="1.1.1 (3bf5ae0d25, 2021-09-20)"
   xmlns:inkscape="http://www.inkscape.org/namespaces/inkscape"
   xmlns:sodipodi="http://sodipodi.sourceforge.net/DTD/sodipodi-0.dtd"
   xmlns="http://www.w3.org/2000/svg"
   xmlns:svg="http://www.w3.org/2000/svg">
  <sodipodi:namedview
     id="namedview46"
     pagecolor="#ffffff"
     bordercolor="#666666"
     borderopacity="1.0"
     inkscape:pageshadow="2"
     inkscape:pageopacity="0.0"
     inkscape:pagecheckerboard="0"
     showgrid="false"
     inkscape:zoom="22.627417"
     inkscape:cx="21.478368"
     inkscape:cy="21.456271"
     inkscape:window-width="1920"
     inkscape:window-height="1001"
     inkscape:window-x="350"
     inkscape:window-y="1431"
     inkscape:window-maximized="1"
     inkscape:current-layer="svg44" />
  <defs
     id="defs42">
    <filter
       id="filter0_dd_1813_203285"
       x="0"
       y="0"
       width="68"
       height="68"
       filterUnits="userSpaceOnUse"
       color-interpolation-filters="sRGB">
      <feFlood
         flood-opacity="0"
         result="BackgroundImageFix"
         id="feFlood12" />
      <feColorMatrix
         in="SourceAlpha"
         type="matrix"
         values="0 0 0 0 0 0 0 0 0 0 0 0 0 0 0 0 0 0 127 0"
         result="hardAlpha"
         id="feColorMatrix14" />
      <feMorphology
         radius="2"
         operator="erode"
         in="SourceAlpha"
         result="effect1_dropShadow_1813_203285"
         id="feMorphology16" />
      <feOffset
         dy="6"
         id="feOffset18" />
      <feGaussianBlur
         stdDeviation="6"
         id="feGaussianBlur20" />
      <feColorMatrix
         type="matrix"
         values="0 0 0 0 0 0 0 0 0 0.172549 0 0 0 0 0.368627 0 0 0 0.15 0"
         id="feColorMatrix22" />
      <feBlend
         mode="normal"
         in2="BackgroundImageFix"
         result="effect1_dropShadow_1813_203285"
         id="feBlend24" />
      <feColorMatrix
         in="SourceAlpha"
         type="matrix"
         values="0 0 0 0 0 0 0 0 0 0 0 0 0 0 0 0 0 0 127 0"
         result="hardAlpha"
         id="feColorMatrix26" />
      <feMorphology
         radius="1"
         operator="dilate"
         in="SourceAlpha"
         result="effect2_dropShadow_1813_203285"
         id="feMorphology28" />
      <feOffset
         id="feOffset30" />
      <feColorMatrix
         type="matrix"
         values="0 0 0 0 0 0 0 0 0 0.172549 0 0 0 0 0.368627 0 0 0 0.1 0"
         id="feColorMatrix32" />
      <feBlend
         mode="normal"
         in2="effect1_dropShadow_1813_203285"
         result="effect2_dropShadow_1813_203285"
         id="feBlend34" />
      <feBlend
         mode="normal"
         in="SourceGraphic"
         in2="effect2_dropShadow_1813_203285"
         result="shape"
         id="feBlend36" />
    </filter>
    <clipPath
       id="clip0_1813_203285">
      <rect
         width="24"
         height="24"
         fill="#ffffff"
         transform="translate(22,16)"
         id="rect39"
         x="0"
         y="0" />
    </clipPath>
  </defs>
  <rect
     style="fill:#00985f;fill-opacity:1;stroke-width:1.7674;stroke-dasharray:1.7674, 5.30221"
     id="rect859"
     width="36"
     height="36"
     x="0.0026578903"
     y="-0.0011539459"
     rx="10.450076"
     ry="9.1851301" />
  <path
     d="m 18.152358,12.048135 0.9864,0.1644 v 0 z m -0.1392,2.68788 -0.9974,0.07187 c 0.0325,0.45222 0.3653,0.82594 0.8107,0.91056 0.4455,0.08462 0.8921,-0.14103 1.0882,-0.5498 z m -3.1189,2.9947 0.07186,0.9974 c 0.45223,-0.0325 0.82594,-0.3653 0.91056,-0.8107 0.08463,-0.4455 -0.14102,-0.8921 -0.5498,-1.0882 z m -2.68788,-0.1392 -0.1644,0.9864 z m 5.68258,3.2581 0.9974,-0.0719 c -0.0325,-0.4522 -0.3653,-0.8259 -0.8107,-0.9105 -0.4455,-0.0847 -0.8921,0.141 -1.0882,0.5498 z m -0.1392,2.6879 0.9864,0.1644 z m 3.2581,-5.6826 -0.0719,-0.9974 c -0.4522,0.0325 -0.8259,0.3653 -0.9105,0.8107 -0.0846,0.4455 0.141,0.8921 0.5498,1.0882 z m 2.6879,0.1392 -0.1644,0.9864 z m 0,-7.65954 v -1 z m -6.5298,1.54916 c -0.1873,1.12377 -0.2101,2.09336 -0.1502,2.92415 l 1.9948,-0.14374 c -0.0489,-0.67883 -0.0321,-1.48963 0.1282,-2.45161 z m -2.84335,-3.09092 c 0.80231,0 1.6092,0.32714 2.16128,0.87806 0.53117,0.53003 0.83857,1.27389 0.68207,2.21286 l 1.9728,0.3288 c 0.2691,-1.61422 -0.2808,-2.99802 -1.2421,-3.95736 -0.9405,-0.938433 -2.26123,-1.46236 -3.57405,-1.46236 z m -2.82979,3.25532 c 0,-1.89958 1.36344,-3.25532 2.82979,-3.25532 v -2 c -2.76392,0 -4.82979,2.4546 -4.82979,5.25532 z m 3.83406,4.78108 c -1.06298,-0.51013 -2.04337,-1.29683 -2.74947,-2.18531 -0.71428,-0.89878 -1.08459,-1.81828 -1.08459,-2.59577 h -2 c 0,1.37727 0.63174,2.72388 1.51883,3.84011 0.89528,1.12657 2.11561,2.10377 3.44998,2.74407 z m -3.2849,1.7487 c 1.12377,0.1873 2.09336,0.2101 2.92414,0.1502 l -0.14373,-1.99479 c -0.67884,0.04891 -1.48963,0.03209 -2.45161,-0.12824 z m -3.09092,2.8433 c 0,-0.8023 0.32714,-1.6091 0.87806,-2.1612 0.53003,-0.5312 1.27389,-0.8386 2.21286,-0.6821 l 0.3288,-1.97283 c -1.61422,-0.26904 -2.99802,0.28083 -3.95736,1.24213 -0.938433,0.9405 -1.46236,2.2612 -1.46236,3.574 z m 3.25532,2.8298 c -1.89958,0 -3.25532,-1.3634 -3.25532,-2.8298 h -2 c 0,2.764 2.4546,4.8298 5.25532,4.8298 z m 4.78108,-3.834 c -0.51013,1.063 -1.29683,2.0433 -2.18531,2.7494 -0.89878,0.7143 -1.81828,1.0846 -2.59577,1.0846 v 2 c 1.37727,0 2.72388,-0.6317 3.84011,-1.5188 1.12657,-0.8953 2.10377,-2.1156 2.74407,-3.45 z m 1.7487,3.2849 c 0.1873,-1.1238 0.2101,-2.0934 0.1502,-2.9242 l -1.99479,0.1438 c 0.04891,0.6788 0.03209,1.4896 -0.12824,2.4516 z m 2.8433,3.0909 c -0.8023,0 -1.6091,-0.3271 -2.1612,-0.8781 -0.5312,-0.53 -0.8386,-1.2738 -0.6821,-2.2128 l -1.97283,-0.3288 c -0.26904,1.6142 0.28083,2.998 1.24213,3.9573 0.9405,0.9385 2.2612,1.4624 3.574,1.4624 z m 2.8298,-3.2553 c 0,1.8996 -1.3634,3.2553 -2.8298,3.2553 v 2 c 2.764,0 4.8298,-2.4546 4.8298,-5.2553 z m -3.834,-4.7811 c 1.063,0.5101 2.0433,1.2968 2.7494,2.1853 0.7143,0.8988 1.0846,1.8183 1.0846,2.5958 h 2 c 0,-1.3773 -0.6317,-2.7239 -1.5188,-3.8401 -0.8953,-1.1266 -2.1156,-2.1038 -3.45,-2.7441 z m 3.2849,-1.7487 c -1.1238,-0.1873 -2.0934,-0.2101 -2.9242,-0.1502 l 0.1438,1.9948 c 0.6788,-0.0489 1.4896,-0.0321 2.4516,0.1282 z m 3.0909,-2.84335 c 0,0.80231 -0.3271,1.6092 -0.8781,2.16128 -0.53,0.53117 -1.2738,0.83857 -2.2128,0.68207 l -0.3288,1.9728 c 1.6142,0.2691 2.998,-0.2808 3.9573,-1.2421 0.9385,-0.9405 1.4624,-2.26123 1.4624,-3.57405 z m -3.2553,-2.82979 c 1.8996,0 3.2553,1.36344 3.2553,2.82979 h 2 c 0,-2.76392 -2.4546,-4.82979 -5.2553,-4.82979 z m -4.7811,3.83407 c 0.5101,-1.06299 1.2968,-2.04338 2.1853,-2.74948 0.8988,-0.71428 1.8183,-1.08459 2.5958,-1.08459 v -2 c -1.3773,0 -2.7239,0.63174 -3.8401,1.51883 -1.1266,0.89528 -2.1038,2.11561 -2.7441,3.44998 z"
     fill="#ffffff"
     id="path2" />
</svg>
