<?xml version="1.0" encoding="UTF-8" standalone="no"?>
<svg
   width="50"
   height="50"
   preserveAspectRatio="xMidYMid"
   version="1.1"
   id="svg2"
   sodipodi:docname="HOT.svg"
   inkscape:version="1.4 (86a8ad7, 2024-10-11)"
   xmlns:inkscape="http://www.inkscape.org/namespaces/inkscape"
   xmlns:sodipodi="http://sodipodi.sourceforge.net/DTD/sodipodi-0.dtd"
   xmlns="http://www.w3.org/2000/svg"
   xmlns:svg="http://www.w3.org/2000/svg">
  <defs
     id="defs2" />
  <sodipodi:namedview
     id="namedview2"
     pagecolor="#ffffff"
     bordercolor="#000000"
     borderopacity="0.25"
     inkscape:showpageshadow="2"
     inkscape:pageopacity="0.0"
     inkscape:pagecheckerboard="0"
     inkscape:deskcolor="#d1d1d1"
     inkscape:zoom="10.029131"
     inkscape:cx="17.748297"
     inkscape:cy="26.373172"
     inkscape:window-width="1920"
     inkscape:window-height="1111"
     inkscape:window-x="1014"
     inkscape:window-y="2151"
     inkscape:window-maximized="1"
     inkscape:current-layer="svg2" />
  <g
     id="g1"
     transform="matrix(0.83397142,0,0,0.83397142,-0.16602858,-0.16602858)">
    <title
       id="title1">background</title>
    <rect
       fill="none"
       id="canvas_background"
       height="62"
       width="62"
       y="-1"
       x="-1" />
  </g>
  <g
     id="g2"
     transform="matrix(0.82898595,0,0,0.82898595,0.03397527,0.08923944)">
    <title
       id="title2">Layer 1</title>
    <g
       id="g20"
       fill="#ffd700"
       transform="matrix(0.00468836,0,0,-0.00468807,0.11179684,60.04264)">
      <path
         id="path2"
         d="m 4671,12787 c -13,-6 -34,-25 -45,-40 l -21,-28 -8,-1457 c -9,-1611 -13,-1503 54,-1538 19,-9 45,-14 63,-11 17,3 181,88 364,190 l 332,184 382,7 c 275,5 391,11 413,20 39,17 65,56 65,99 0,26 -158,304 -726,1278 -446,764 -739,1257 -760,1277 -36,34 -72,41 -113,19 z"
         style="fill:#000000" />
      <path
         id="path4"
         d="m 9603,12133 c -32,-19 -2044,-2008 -2075,-2053 -27,-39 -23,-94 10,-130 24,-28 62,-40 397,-136 l 370,-106 280,-269 c 283,-272 313,-295 367,-282 30,8 64,39 77,71 10,27 38,129 361,1362 89,338 206,785 261,994 120,455 122,462 103,497 -33,64 -92,84 -151,52 z"
         style="fill:#000000" />
      <path
         id="path6"
         d="m 713,9750 c -62,-38 -78,-88 -45,-147 18,-32 2007,-2044 2052,-2075 39,-27 94,-23 130,10 27,24 41,63 137,398 l 106,372 269,278 c 271,282 294,312 281,366 -8,30 -39,64 -71,77 -15,6 -189,53 -387,105 -1934,508 -2375,623 -2411,629 -20,4 -41,0 -61,-13 z"
         style="fill:#000000" />
      <path
         id="path8"
         d="M 6074,9589 C 5047,9490 4098,8860 3591,7944 3408,7614 3280,7221 3225,6820 c -22,-160 -31,-532 -16,-699 63,-715 360,-1378 853,-1907 534,-574 1220,-915 2008,-999 157,-17 488,-19 643,-5 1039,99 1986,723 2496,1646 183,330 311,723 366,1124 22,160 31,532 16,699 -64,721 -364,1386 -865,1921 -528,562 -1215,901 -1996,985 -144,16 -515,18 -656,4 z"
         style="fill:#000000" />
      <path
         id="path10"
         d="m 9764,8192 c -37,-23 -59,-71 -51,-111 3,-15 89,-177 190,-359 l 184,-332 7,-382 c 5,-275 11,-391 20,-413 17,-39 56,-65 99,-65 26,0 304,158 1278,726 796,464 1256,738 1278,761 29,31 33,40 28,75 -6,47 -37,84 -81,97 -18,5 -618,12 -1476,15 -1412,7 -1446,6 -1476,-12 z"
         style="fill:#000000" />
      <path
         id="path12"
         d="M 1309,5544 C 513,5080 53,4806 31,4783 2,4752 -2,4743 3,4708 c 6,-47 37,-84 81,-97 18,-5 618,-12 1473,-16 1303,-6 1444,-5 1472,10 39,20 65,68 58,109 -3,17 -88,181 -190,364 l -184,332 -7,382 c -5,275 -11,391 -20,413 -17,39 -56,65 -99,65 -26,0 -304,-158 -1278,-726 z"
         style="fill:#000000" />
      <path
         id="path14"
         d="m 9950,5263 c -27,-25 -40,-63 -136,-399 l -106,-370 -269,-280 c -272,-282 -295,-312 -282,-366 8,-30 39,-64 71,-77 27,-10 129,-38 1362,-361 338,-89 785,-206 994,-261 455,-120 462,-122 497,-103 64,33 84,92 52,151 -19,32 -2008,2044 -2053,2075 -39,27 -94,23 -130,-9 z"
         style="fill:#000000" />
      <path
         id="path16"
         d="m 3845,3643 c -27,-7 -61,-39 -74,-71 -10,-27 -38,-129 -361,-1362 -89,-338 -206,-785 -261,-994 -120,-455 -122,-462 -103,-497 33,-64 92,-84 151,-51 32,18 2044,2007 2075,2052 27,39 23,94 -9,130 -25,27 -63,40 -399,136 l -371,106 -269,260 c -148,143 -278,266 -289,273 -25,16 -64,24 -90,18 z"
         style="fill:#000000" />
      <path
         id="path18"
         d="m 8040,3072 c -19,-10 -174,-95 -345,-189 l -310,-171 -380,-7 c -273,-5 -388,-10 -410,-19 -39,-17 -65,-56 -65,-99 0,-26 158,-304 726,-1278 465,-797 738,-1256 761,-1278 31,-29 40,-33 75,-28 47,6 84,37 97,81 5,18 12,618 16,1473 7,1591 11,1484 -55,1518 -38,20 -68,19 -110,-3 z"
         style="fill:#000000" />
    </g>
  </g>
</svg>
