<svg width="18" height="2" viewBox="0 0 18 2" fill="none" xmlns="http://www.w3.org/2000/svg">
<path d="M1.88889 0.0611107C1.63988 0.0611107 1.40107 0.160029 1.22499 0.336105C1.04892 0.512181 0.95 0.75099 0.95 0.999999C0.95 1.24901 1.04892 1.48782 1.22499 1.66389C1.40107 1.83997 1.63988 1.93889 1.88889 1.93889H1.94232H1.99547H2.04833H2.10091H2.1532H2.2052H2.25692H2.30836H2.35952H2.41041H2.46101H2.51133H2.56138H2.61115H2.66065H2.70988H2.75883H2.80752H2.85593H2.90408H2.95196H2.99957H3.04692H3.094H3.14082H3.18738H3.23367H3.27971H3.32549H3.37101H3.41628H3.46129H3.50604H3.55055H3.5948H3.6388H3.68255H3.72605H3.76931H3.81231H3.85508H3.8976H3.93987H3.9819H4.0237H4.06525H4.10657H4.14764H4.18848H4.22909H4.26946H4.3096H4.3495H4.38918H4.42862H4.46784H4.50683H4.54559H4.58413H4.62244H4.66053H4.6984H4.73605H4.77347H4.81068H4.84767H4.88445H4.92101H4.95735H4.99348H5.0294H5.06511H5.10061H5.1359H5.17098H5.20585H5.24052H5.27499H5.30925H5.34331H5.37717H5.41083H5.44429H5.47755H5.51062H5.54349H5.57616H5.60864H5.64093H5.67303H5.70494H5.73666H5.7682H5.79954H5.8307H5.86168H5.89247H5.92308H5.95351H5.98376H6.01383H6.04372H6.07344H6.10298H6.13234H6.16154H6.19056H6.21941H6.24808H6.27659H6.30494H6.33311H6.36112H6.38897H6.41665H6.44417H6.47152H6.49872H6.52576H6.55264H6.57936H6.60593H6.63235H6.65861H6.68471H6.71067H6.73648H6.76213H6.78764H6.81301H6.83822H6.86329H6.88822H6.91301H6.93765H6.96216H6.98652H7.01075H7.03484H7.05879H7.08261H7.1063H7.12985H7.15328H7.17657H7.19973H7.22277H7.24568H7.26846H7.29111H7.31365H7.33606H7.35835H7.38052H7.40257H7.4245H7.44632H7.46801H7.4896H7.51107H7.53243H7.55367H7.57481H7.59584H7.61676H7.63757H7.65827H7.67887H7.69937H7.71977H7.74006H7.76025H7.78034H7.80034H7.82024H7.84004H7.85975H7.87936H7.89888H7.91831H7.93765H7.9569H7.97606H7.99513H8.01412H8.03302H8.05184H8.07058H8.08923H8.10781H8.1263H8.14472H8.16306H8.18132H8.19951H8.21762H8.23566H8.25363H8.27153H8.28936H8.30712H8.32482H8.34244H8.36001H8.3775H8.39494H8.41231H8.42963H8.44688H8.46408H8.48122H8.4983H8.51533H8.5323H8.54922H8.56609H8.58291H8.59967H8.61639H8.63307H8.64969H8.66627H8.68281H8.69931H8.71576H8.73217H8.74854H8.76487H8.78117H8.79743H8.81366H8.82985H8.846H8.86213H8.87822H8.89429H8.91033H8.92633H8.94232H8.95828H8.97421H8.99012H9.00601H9.02188H9.03772H9.05355H9.06937H9.08516H9.10094H9.11671H9.13246H9.1482H9.16393H9.17965H9.19536H9.21107H9.22677H9.24246H9.25815H9.27383H9.28951H9.3052H9.32088H9.33656H9.35225H9.36794H9.38363H9.39933H9.41504H9.43075H9.44648H9.46221H9.47796H9.49371H9.50948H9.52527H9.54107H9.55689H9.57273H9.58858H9.60445H9.62035H9.63627H9.65221H9.66818H9.68417H9.70019H9.71623H9.73231H9.74841H9.76455H9.78072H9.79692H9.81316H9.82943H9.84574H9.86209H9.87847H9.8949H9.91137H9.92787H9.94443H9.96102H9.97767H9.99436H10.0111H10.0279H10.0447H10.0616H10.0785H10.0955H10.1126H10.1297H10.1468H10.1641H10.1813H10.1987H10.2161H10.2335H10.251H10.2686H10.2863H10.304H10.3218H10.3396H10.3576H10.3755H10.3936H10.4118H10.43H10.4483H10.4666H10.4851H10.5036H10.5222H10.5409H10.5596H10.5785H10.5974H10.6164H10.6355H10.6547H10.674H10.6934H10.7128H10.7324H10.752H10.7718H10.7916H10.8115H10.8316H10.8517H10.8719H10.8923H10.9127H10.9332H10.9539H10.9746H10.9955H11.0164H11.0375H11.0586H11.0799H11.1013H11.1228H11.1445H11.1662H11.1881H11.21H11.2321H11.2543H11.2767H11.2991H11.3217H11.3444H11.3672H11.3902H11.4133H11.4365H11.4598H11.4833H11.5069H11.5306H11.5545H11.5785H11.6026H11.6269H11.6513H11.6758H11.7005H11.7254H11.7504H11.7755H11.8007H11.8262H11.8517H11.8774H11.9033H11.9293H11.9555H11.9818H12.0082H12.0349H12.0616H12.0886H12.1157H12.1429H12.1703H12.1979H12.2257H12.2536H12.2816H12.3099H12.3383H12.3668H12.3956H12.4245H12.4535H12.4828H12.5122H12.5418H12.5716H12.6016H12.6317H12.662H12.6925H12.7232H12.754H12.7851H12.8163H12.8477H12.8793H12.9111H12.9431H12.9752H13.0076H13.0401H13.0729H13.1058H13.139H13.1723H13.2058H13.2395H13.2735H13.3076H13.3419H13.3765H13.4112H13.4462H13.4813H13.5167H13.5522H13.588H13.624H13.6602H13.6966H13.7333H13.7701H13.8072H13.8445H13.882H13.9197H13.9577H13.9958H14.0342H14.0728H14.1117H14.1507H14.19H14.2296H14.2693H14.3093H14.3495H14.39H14.4307H14.4716H14.5127H14.5541H14.5958H14.6377H14.6798H14.7221H14.7647H14.8076H14.8507H14.894H14.9376H14.9814H15.0255H15.0699H15.1145H15.1593H15.2044H15.2498H15.2954H15.3412H15.3874H15.4338H15.4804H15.5273H15.5745H15.6219H15.6696H15.7176H15.7658H15.8144H15.8631H15.9122H15.9615H16.0111H16.061H16.1111C16.3601 1.93889 16.5989 1.83997 16.775 1.66389C16.9511 1.48782 17.05 1.24901 17.05 0.999999C17.05 0.75099 16.9511 0.512181 16.775 0.336105C16.5989 0.160029 16.3601 0.0611107 16.1111 0.0611107H16.0573H16.0037H15.9505H15.8975H15.8449H15.7925H15.7404H15.6886H15.6371H15.5858H15.5349H15.4842H15.4338H15.3837H15.3339H15.2843H15.235H15.186H15.1373H15.0888H15.0406H14.9927H14.9451H14.8977H14.8506H14.8037H14.7572H14.7109H14.6648H14.619H14.5735H14.5282H14.4832H14.4384H14.3939H14.3497H14.3057H14.262H14.2185H14.1752H14.1323H14.0895H14.047H14.0048H13.9628H13.921H13.8795H13.8382H13.7972H13.7564H13.7159H13.6755H13.6355H13.5956H13.556H13.5166H13.4775H13.4385H13.3998H13.3614H13.3231H13.2851H13.2473H13.2098H13.1724H13.1353H13.0984H13.0617H13.0253H12.989H12.953H12.9172H12.8816H12.8462H12.811H12.776H12.7413H12.7067H12.6724H12.6382H12.6043H12.5706H12.537H12.5037H12.4706H12.4376H12.4049H12.3724H12.34H12.3079H12.2759H12.2441H12.2126H12.1812H12.15H12.119H12.0882H12.0575H12.0271H11.9968H11.9667H11.9368H11.9071H11.8775H11.8482H11.819H11.79H11.7611H11.7324H11.7039H11.6756H11.6474H11.6194H11.5916H11.564H11.5365H11.5091H11.482H11.455H11.4281H11.4014H11.3749H11.3485H11.3223H11.2962H11.2703H11.2446H11.219H11.1935H11.1682H11.1431H11.1181H11.0932H11.0685H11.0439H11.0195H10.9952H10.971H10.947H10.9231H10.8994H10.8758H10.8523H10.829H10.8058H10.7827H10.7598H10.737H10.7143H10.6918H10.6693H10.647H10.6248H10.6028H10.5808H10.559H10.5373H10.5157H10.4943H10.4729H10.4517H10.4306H10.4096H10.3887H10.3679H10.3472H10.3266H10.3061H10.2858H10.2655H10.2454H10.2253H10.2054H10.1855H10.1658H10.1461H10.1265H10.1071H10.0877H10.0684H10.0492H10.0302H10.0112H9.99223H9.97341H9.95466H9.93601H9.91743H9.89894H9.88053H9.86221H9.84396H9.82579H9.80769H9.78968H9.77174H9.75387H9.73607H9.71835H9.7007H9.68311H9.6656H9.64815H9.63076H9.61345H9.59619H9.579H9.56187H9.5448H9.52779H9.51084H9.49395H9.47711H9.46033H9.44359H9.42692H9.41029H9.39371H9.37719H9.36071H9.34427H9.32789H9.31155H9.29525H9.27899H9.26278H9.2466H9.23047H9.21437H9.19831H9.18228H9.16629H9.15034H9.13441H9.11852H9.10265H9.08682H9.07101H9.05523H9.03947H9.02374H9.00804H8.99235H8.97669H8.96104H8.94542H8.92981H8.91422H8.89864H8.88308H8.86753H8.852H8.83647H8.82095H8.80545H8.78995H8.77446H8.75897H8.74348H8.728H8.71252H8.69705H8.68157H8.66609H8.65061H8.63512H8.61963H8.60413H8.58863H8.57312H8.55759H8.54206H8.52652H8.51096H8.49539H8.47981H8.46421H8.44859H8.43295H8.4173H8.40162H8.38592H8.3702H8.35445H8.33868H8.32289H8.30706H8.29121H8.27533H8.25942H8.24347H8.2275H8.21149H8.19544H8.17936H8.16324H8.14708H8.13088H8.11464H8.09836H8.08203H8.06567H8.04925H8.03279H8.01628H7.99973H7.98312H7.96646H7.94976H7.93299H7.91618H7.8993H7.88237H7.86539H7.84834H7.83124H7.81407H7.79684H7.77955H7.7622H7.74477H7.72729H7.70973H7.6921H7.67441H7.65664H7.6388H7.62089H7.60291H7.58484H7.5667H7.54849H7.53019H7.51182H7.49336H7.47482H7.45619H7.43749H7.41869H7.39981H7.38084H7.36178H7.34264H7.3234H7.30406H7.28464H7.26512H7.2455H7.22579H7.20598H7.18607H7.16605H7.14594H7.12572H7.10541H7.08498H7.06445H7.04381H7.02307H7.00221H6.98125H6.96017H6.93898H6.91767H6.89626H6.87472H6.85307H6.8313H6.80941H6.7874H6.76526H6.74301H6.72063H6.69812H6.67549H6.65273H6.62984H6.60683H6.58368H6.5604H6.53699H6.51344H6.48976H6.46594H6.44199H6.41789H6.39366H6.36928H6.34476H6.3201H6.2953H6.27035H6.24525H6.22001H6.19462H6.16907H6.14338H6.11753H6.09154H6.06538H6.03907H6.01261H5.98598H5.9592H5.93226H5.90516H5.87789H5.85046H5.82287H5.79511H5.76718H5.73909H5.71083H5.68239H5.65379H5.62501H5.59606H5.56694H5.53764H5.50816H5.47851H5.44867H5.41866H5.38846H5.35808H5.32752H5.29677H5.26584H5.23472H5.20341H5.17192H5.14023H5.10835H5.07628H5.04401H5.01155H4.9789H4.94604H4.91299H4.87974H4.84629H4.81264H4.77878H4.74472H4.71046H4.67599H4.64131H4.60643H4.57133H4.53602H4.50051H4.46477H4.42883H4.39267H4.35629H4.3197H4.28289H4.24586H4.20861H4.17113H4.13343H4.09551H4.05737H4.01899H3.98039H3.94157H3.90251H3.86322H3.8237H3.78394H3.74395H3.70373H3.66327H3.62257H3.58164H3.54046H3.49904H3.45738H3.41548H3.37333H3.33094H3.2883H3.24541H3.20228H3.15889H3.11526H3.07137H3.02722H2.98283H2.93818H2.89327H2.8481H2.80267H2.75699H2.71104H2.66483H2.61836H2.57162H2.52462H2.47735H2.42981H2.382H2.33393H2.28558H2.23696H2.18806H2.13889H2.08945H2.03973H1.98973H1.93945H1.88889Z" fill="black" stroke="black" stroke-width="0.1"/>
</svg>
