<svg width="18" height="18" viewBox="0 0 18 18" fill="none" xmlns="http://www.w3.org/2000/svg">
<path d="M9 0.95C8.75099 0.95 8.51218 1.04892 8.33611 1.22499C8.16003 1.40107 8.06111 1.63988 8.06111 1.88889V8.06111H1.88889C1.63988 8.06111 1.40107 8.16003 1.22499 8.33611C1.04892 8.51218 0.95 8.75099 0.95 9C0.95 9.24901 1.04892 9.48782 1.22499 9.66389C1.40107 9.83997 1.63988 9.93889 1.88889 9.93889H8.06111V16.1111C8.06111 16.3601 8.16003 16.5989 8.33611 16.775C8.51218 16.9511 8.75099 17.05 9 17.05C9.24901 17.05 9.48782 16.9511 9.66389 16.775C9.83997 16.5989 9.93889 16.3601 9.93889 16.1111V9.93889H16.1111C16.3601 9.93889 16.5989 9.83997 16.775 9.66389C16.9511 9.48782 17.05 9.24901 17.05 9C17.05 8.75099 16.9511 8.51218 16.775 8.33611C16.5989 8.16003 16.3601 8.06111 16.1111 8.06111H9.93889V1.88889C9.93889 1.63988 9.83997 1.40107 9.66389 1.22499C9.48782 1.04892 9.24901 0.95 9 0.95Z" fill="black" stroke="black" stroke-width="0.1"/>
</svg>
