<svg width="22" height="19" viewBox="0 0 22 19" fill="none" xmlns="http://www.w3.org/2000/svg">
<path fill-rule="evenodd" clip-rule="evenodd" d="M0 1C0 0.447715 0.447715 0 1 0H21C21.5523 0 22 0.447715 22 1C22 1.55228 21.5523 2 21 2H20V16C20 17.6569 18.6569 19 17 19C16.2316 19 15.5308 18.7111 15 18.2361C14.4692 18.7111 13.7684 19 13 19C12.2316 19 11.5308 18.7111 11 18.2361C10.4692 18.7111 9.76836 19 9 19C8.23164 19 7.53076 18.7111 7 18.2361C6.46925 18.7111 5.76836 19 5 19C3.34315 19 2 17.6569 2 16V2H1C0.447715 2 0 1.55228 0 1ZM14 16V2H12V16C12 16.5523 12.4477 17 13 17C13.5523 17 14 16.5523 14 16ZM18 2H16V16C16 16.5523 16.4477 17 17 17C17.5523 17 18 16.5523 18 16V2ZM8 2H10V16C10 16.5523 9.55228 17 9 17C8.44772 17 8 16.5523 8 16V2ZM6 16V2H4V16C4 16.5523 4.44772 17 5 17C5.55228 17 6 16.5523 6 16Z" fill="black"/>
</svg>
