<svg width="18" height="21" viewBox="0 0 18 21" fill="none" xmlns="http://www.w3.org/2000/svg">
<path d="M12.7071 6.70711C13.0976 6.31658 13.0976 5.68342 12.7071 5.29289C12.3166 4.90237 11.6834 4.90237 11.2929 5.29289L5.29289 11.2929C4.90237 11.6834 4.90237 12.3166 5.29289 12.7071C5.68342 13.0976 6.31658 13.0976 6.70711 12.7071L12.7071 6.70711Z" fill="black" fill-opacity="0.6"/>
<path d="M8 6.5C8 7.32843 7.32843 8 6.5 8C5.67157 8 5 7.32843 5 6.5C5 5.67157 5.67157 5 6.5 5C7.32843 5 8 5.67157 8 6.5Z" fill="black" fill-opacity="0.6"/>
<path d="M11.5 13C12.3284 13 13 12.3284 13 11.5C13 10.6716 12.3284 10 11.5 10C10.6716 10 10 10.6716 10 11.5C10 12.3284 10.6716 13 11.5 13Z" fill="black" fill-opacity="0.6"/>
<path fill-rule="evenodd" clip-rule="evenodd" d="M8.46946 20.8477C8.46975 20.8478 8.47 20.848 9 20L8.46946 20.8477C8.79373 21.0503 9.20573 21.0507 9.53 20.848L9 20C9.53 20.848 9.52971 20.8482 9.53 20.848L9.53126 20.8472L9.53325 20.846L9.53941 20.8421L9.56026 20.8289C9.5779 20.8176 9.60292 20.8016 9.63483 20.7808C9.69865 20.7393 9.79011 20.679 9.90525 20.6009C10.1354 20.4447 10.4609 20.2168 10.85 19.925C11.6265 19.3427 12.6649 18.4993 13.7071 17.4571C15.7463 15.4179 18 12.4194 18 9C18 4.02944 13.9706 0 9 0C4.02944 0 0 4.02944 0 9C0 12.4194 2.25372 15.4179 4.29289 17.4571C5.3351 18.4993 6.37354 19.3427 7.15 19.925C7.53909 20.2168 7.86457 20.4447 8.09475 20.6009C8.20989 20.679 8.30135 20.7393 8.36517 20.7808L8.4158 20.8135L8.43974 20.8289L8.46059 20.8421L8.46675 20.846L8.46946 20.8477ZM2 9C2 5.13401 5.13401 2 9 2C12.866 2 16 5.13401 16 9C16 11.5806 14.2537 14.0821 12.2929 16.0429C11.3351 17.0007 10.3735 17.7823 9.65 18.325C9.40064 18.512 9.18058 18.6699 9 18.796C8.81941 18.6699 8.59936 18.512 8.35 18.325C7.62646 17.7823 6.6649 17.0007 5.70711 16.0429C3.74628 14.0821 2 11.5806 2 9Z" fill="black" fill-opacity="0.6"/>
</svg>
