<?xml version="1.0" encoding="UTF-8" standalone="no"?>
<!-- icon666.com - MILLIONS OF FREE VECTOR ICONS -->

<svg
   id="Layer_2"
   enable-background="new 0 0 64 64"
   viewBox="0 0 50 50"
   version="1.1"
   sodipodi:docname="sun.svg"
   width="50"
   height="50"
   inkscape:version="1.4 (86a8ad7, 2024-10-11)"
   xmlns:inkscape="http://www.inkscape.org/namespaces/inkscape"
   xmlns:sodipodi="http://sodipodi.sourceforge.net/DTD/sodipodi-0.dtd"
   xmlns="http://www.w3.org/2000/svg"
   xmlns:svg="http://www.w3.org/2000/svg">
  <defs
     id="defs1" />
  <sodipodi:namedview
     id="namedview1"
     pagecolor="#ffffff"
     bordercolor="#000000"
     borderopacity="0.25"
     inkscape:showpageshadow="2"
     inkscape:pageopacity="0.0"
     inkscape:pagecheckerboard="0"
     inkscape:deskcolor="#d1d1d1"
     inkscape:zoom="8"
     inkscape:cx="-1.5"
     inkscape:cy="39.9375"
     inkscape:window-width="1920"
     inkscape:window-height="1111"
     inkscape:window-x="1014"
     inkscape:window-y="2151"
     inkscape:window-maximized="1"
     inkscape:current-layer="Layer_2" />
  <path
     d="M 22.133458,9.3622038 C 22.03744,8.1061556 22.270851,6.0593201 24.398092,4.6518279 24.480059,4.5979639 24.55422,4.5323902 24.616671,4.4566682 24.686929,4.3723592 26.021821,2.7314559 25.681463,0 c 0.441841,0.32240392 0.901638,0.77283263 1.28259,1.3989051 1.080404,1.7814183 1.167055,4.4683778 0.259952,7.8102935 -0.607337,-0.1366119 -1.434034,-0.2693205 -2.365336,-0.2693205 -0.972676,0 -1.884463,0.1420763 -2.725211,0.4223257 z m 2.96877,31.6588152 c -0.931302,0 -1.757999,-0.131928 -2.365336,-0.26932 -0.907102,3.341916 -0.820451,6.028875 0.259953,7.810293 0.380171,0.626073 0.839968,1.076502 1.28259,1.398906 -0.340359,-2.731456 0.994534,-4.37314 1.064792,-4.456669 0.06323,-0.07572 0.136611,-0.141295 0.218578,-0.195159 2.127242,-1.407493 2.360653,-3.454328 2.264634,-4.710376 -0.840748,0.280249 -1.752534,0.422325 -2.725211,0.422325 z M 36.236483,13.551893 c 0.658079,0.658079 1.149881,1.336454 1.482433,1.863386 3.003899,-1.72209 4.843866,-3.683055 5.338791,-5.7072521 0.173302,-0.7119428 0.167056,-1.3551893 0.08197,-1.8953915 -1.690864,2.1717377 -3.794687,2.3887556 -3.904757,2.3981226 -0.09758,0.0094 -0.19594,0.0039 -0.291959,-0.01639 -2.499606,-0.5089766 -4.112406,0.772833 -4.932858,1.729115 0.79313,0.395784 1.53864,0.94067 2.226383,1.628413 z M 13.724415,36.409004 C 13.066336,35.750925 12.574533,35.07255 12.241981,34.545619 9.2380822,36.267708 7.398116,38.228674 6.9031909,40.252871 6.7291084,40.964033 6.7353535,41.60806 6.8204432,42.148262 8.5113073,39.976524 10.615129,39.759507 10.7252,39.750139 c 0.09758,-0.0094 0.19594,-0.0039 0.291959,0.01639 2.499606,0.508976 4.112406,-0.772833 4.932858,-1.729116 C 15.157668,37.641629 14.412158,37.096743 13.724415,36.409 Z M 41.021019,24.858669 c 0,0.931302 -0.131928,1.757999 -0.26932,2.365336 3.341135,0.907103 6.028875,0.820452 7.810293,-0.259952 0.626073,-0.380172 1.076502,-0.839968 1.398906,-1.28259 -2.731456,0.340358 -4.37314,-0.994534 -4.456669,-1.064792 -0.07572,-0.06323 -0.141295,-0.136612 -0.195159,-0.218579 -1.407493,-2.127241 -3.454328,-2.360652 -4.710376,-2.264634 0.280249,0.839968 0.422325,1.752535 0.422325,2.725211 z M 8.9398781,25.102228 c 0,-0.931302 0.131928,-1.757999 0.2693205,-2.365336 C 5.8680635,21.82979 3.1803234,21.916441 1.3989051,22.996845 0.77283263,23.377016 0.32240392,23.836813 0,24.278654 c 2.7314559,-0.340358 4.3731398,0.994534 4.4566682,1.064792 0.075722,0.06323 0.1412957,0.136612 0.1951597,0.218579 1.4074922,2.127241 3.4543277,2.360652 4.7103759,2.264634 C 9.0819544,26.987472 8.9398781,26.074905 8.9398781,25.102228 Z M 36.409004,36.236483 c -0.658079,0.658079 -1.336454,1.149881 -1.863385,1.482433 1.722089,3.003899 3.683055,4.843866 5.707252,5.338791 0.711942,0.173302 1.355189,0.167056 1.895391,0.08197 -2.171738,-1.690864 -2.388755,-3.794687 -2.398123,-3.904757 -0.0094,-0.09758 -0.0039,-0.19594 0.01639,-0.291959 0.508976,-2.499606 -0.772833,-4.112406 -1.729116,-4.932858 -0.395784,0.79313 -0.94067,1.53864 -1.628413,2.226383 z M 13.551893,13.724415 c 0.658079,-0.658079 1.336454,-1.149882 1.863386,-1.482434 C 13.693189,9.2380822 11.732224,7.398116 9.7080269,6.9031909 8.9968648,6.7291084 8.3528376,6.7353535 7.8126354,6.8204432 9.9843731,8.5113073 10.201391,10.615129 10.210758,10.7252 c 0.0094,0.09758 0.0039,0.19594 -0.01639,0.291959 -0.5089766,2.499606 0.772833,4.112406 1.729115,4.932858 0.395784,-0.792349 0.94067,-1.537859 1.628413,-2.225602 z"
     id="path1"
     sodipodi:nodetypes="ccccccscsccccccssccccccssccccccssccccccssccccccssccccccssccccccs"
     style="stroke-width:0.780639" />
  <ellipse
     style="fill:none;stroke:#000000;stroke-width:5;stroke-dasharray:none;stroke-opacity:1"
     id="path3"
     cx="25.243168"
     cy="25.092857"
     rx="11.444601"
     ry="11.294298" />
</svg>
