<svg width="12" height="22" viewBox="0 0 12 22" fill="none" xmlns="http://www.w3.org/2000/svg">
<path d="M6 7C6.55228 7 7 7.44772 7 8V14.7676C7.5978 15.1134 8 15.7597 8 16.5C8 17.6046 7.10457 18.5 6 18.5C4.89543 18.5 4 17.6046 4 16.5C4 15.7597 4.4022 15.1134 5 14.7676V8C5 7.44772 5.44772 7 6 7Z" fill="black" fill-opacity="0.6"/>
<path fill-rule="evenodd" clip-rule="evenodd" d="M6 0C3.79086 0 2 1.79086 2 4V12.7251C1.0711 13.7093 0.5 15.0385 0.5 16.5C0.5 19.5376 2.96243 22 6 22C9.03757 22 11.5 19.5376 11.5 16.5C11.5 15.0385 10.9289 13.7093 10 12.7251V4C10 1.79086 8.20914 0 6 0ZM8.00262 13.0729C8.00088 13.0488 8 13.0245 8 13V4C8 2.89543 7.10457 2 6 2C4.89543 2 4 2.89543 4 4V13C4 13.0245 3.99912 13.0488 3.99738 13.0729C4.019 13.3713 3.90706 13.6761 3.66691 13.891C2.94928 14.5333 2.5 15.4635 2.5 16.5C2.5 18.433 4.067 20 6 20C7.933 20 9.5 18.433 9.5 16.5C9.5 15.4635 9.05072 14.5333 8.33309 13.891C8.09294 13.6761 7.98101 13.3713 8.00262 13.0729Z" fill="black" fill-opacity="0.6"/>
</svg>
