<svg width="54" height="29" viewBox="0 0 54 29" fill="none" xmlns="http://www.w3.org/2000/svg">
<rect width="54" height="28" rx="14" fill="#04d6bc"/>
<g clip-path="url(#clip0_1708_192729)">
<path d="M17 8C17 7.44772 16.5523 7 16 7C15.4477 7 15 7.44772 15 8V14C15 14.5523 15.4477 15 16 15C16.5523 15 17 14.5523 17 14V8Z" fill="white"/>
<path d="M12.2729 10.6669C12.6412 10.2554 12.6062 9.62319 12.1947 9.25487C11.7832 8.88654 11.151 8.92156 10.7827 9.33309C9.67482 10.5709 9 12.2078 9 14C9 17.866 12.134 21 16 21C19.866 21 23 17.866 23 14C23 12.2078 22.3252 10.5709 21.2173 9.33309C20.849 8.92156 20.2168 8.88654 19.8053 9.25487C19.3938 9.62319 19.3588 10.2554 19.7271 10.6669C20.5194 11.5522 21 12.7188 21 14C21 16.7614 18.7614 19 16 19C13.2386 19 11 16.7614 11 14C11 12.7188 11.4806 11.5522 12.2729 10.6669Z" fill="white"/>
</g>
<g filter="url(#filter0_dd_1708_192729)">
<path d="M40 26C46.6274 26 52 20.6274 52 14C52 7.37258 46.6274 2 40 2C33.3726 2 28 7.37258 28 14C28 20.6274 33.3726 26 40 26Z" fill="white"/>
</g>
<defs>
<filter id="filter0_dd_1708_192729" x="27" y="1" width="26" height="28" filterUnits="userSpaceOnUse" color-interpolation-filters="sRGB">
<feFlood flood-opacity="0" result="BackgroundImageFix"/>
<feColorMatrix in="SourceAlpha" type="matrix" values="0 0 0 0 0 0 0 0 0 0 0 0 0 0 0 0 0 0 127 0" result="hardAlpha"/>
<feMorphology radius="1" operator="erode" in="SourceAlpha" result="effect1_dropShadow_1708_192729"/>
<feOffset dy="2"/>
<feGaussianBlur stdDeviation="1"/>
<feColorMatrix type="matrix" values="0 0 0 0 0 0 0 0 0 0.172549 0 0 0 0 0.368627 0 0 0 0.15 0"/>
<feBlend mode="normal" in2="BackgroundImageFix" result="effect1_dropShadow_1708_192729"/>
<feColorMatrix in="SourceAlpha" type="matrix" values="0 0 0 0 0 0 0 0 0 0 0 0 0 0 0 0 0 0 127 0" result="hardAlpha"/>
<feMorphology radius="1" operator="dilate" in="SourceAlpha" result="effect2_dropShadow_1708_192729"/>
<feOffset/>
<feColorMatrix type="matrix" values="0 0 0 0 0 0 0 0 0 0.172549 0 0 0 0 0.368627 0 0 0 0.1 0"/>
<feBlend mode="normal" in2="effect1_dropShadow_1708_192729" result="effect2_dropShadow_1708_192729"/>
<feBlend mode="normal" in="SourceGraphic" in2="effect2_dropShadow_1708_192729" result="shape"/>
</filter>
<clipPath id="clip0_1708_192729">
<rect width="16" height="16" fill="white" transform="translate(8 6)"/>
</clipPath>
</defs>
</svg>
