<?xml version="1.0" encoding="UTF-8" standalone="no"?>
<!-- Svg Vector Icons : http://www.onlinewebfonts.com/icon -->

<svg
   version="1.1"
   x="0px"
   y="0px"
   viewBox="0 0 50 50"
   enable-background="new 0 0 1000 1000"
   xml:space="preserve"
   id="svg8"
   sodipodi:docname="9474b676e28bd6b372081d0902d48de4 — копия.svg"
   width="50"
   height="50"
   inkscape:version="1.2.2 (732a01da63, 2022-12-09)"
   xmlns:inkscape="http://www.inkscape.org/namespaces/inkscape"
   xmlns:sodipodi="http://sodipodi.sourceforge.net/DTD/sodipodi-0.dtd"
   xmlns="http://www.w3.org/2000/svg"
   xmlns:svg="http://www.w3.org/2000/svg"><defs
   id="defs12" /><sodipodi:namedview
   id="namedview10"
   pagecolor="#ffffff"
   bordercolor="#000000"
   borderopacity="0.25"
   inkscape:showpageshadow="2"
   inkscape:pageopacity="0.0"
   inkscape:pagecheckerboard="0"
   inkscape:deskcolor="#d1d1d1"
   showgrid="false"
   inkscape:zoom="8"
   inkscape:cx="-2.9375"
   inkscape:cy="-16.875"
   inkscape:window-width="3584"
   inkscape:window-height="1906"
   inkscape:window-x="-12"
   inkscape:window-y="-12"
   inkscape:window-maximized="1"
   inkscape:current-layer="svg8" />
<metadata
   id="metadata2"> Svg Vector Icons : http://www.onlinewebfonts.com/icon </metadata>
<g
   id="g6"
   transform="matrix(0.05102575,0,0,0.05086107,-0.52177454,-0.43709265)"><path
     d="M 656.5,488.2 650,484 c -52.4,-62.9 22.7,-70.3 79.8,-132.4 57.1,-62.1 55.3,-113 82.6,-135.8 C 839.8,193 928.6,199.4 985,317.1 1037.1,514.6 656.5,488.2 656.5,488.2 Z M 548.4,368.6 C 463.9,374.5 499.4,311.5 476.9,232 454.4,152.6 408.6,125.5 403.9,91.3 399.2,57.1 454.5,-8.9 589.3,12.7 791.7,82.4 555.7,365.8 555.7,365.8 Z m -308,13.2 C 157.9,355.7 108.7,376.9 75.9,361.7 43.1,346.5 15.3,266.5 108.8,172.2 282,51.2 402,393.5 402,393.5 l -1.6,7.3 c -41.4,69.8 -77.4,7.1 -160,-19 z m 108.3,146.4 6.3,4.4 c 49.9,64.7 -25.4,69.5 -84.9,129.5 -59.5,60 -59.6,111 -87.9,132.9 C 153.9,816.8 65.4,807.4 13.6,687.8 -30.7,488.6 348.7,528.2 348.7,528.2 Z m 96.2,104.1 c 83.8,-11.6 53.3,53.6 81.8,131.3 28.6,77.7 76.3,101.5 83.6,135.3 7.3,33.8 -42.7,103.4 -178.9,91.2 -207.2,-55.6 6.3,-354.5 6.3,-354.5 z m 54.4,-9.7 c -66.3,0 -120,-53.7 -120,-120 0,-66.3 53.7,-120 120,-120 66.3,0 120,53.7 120,120 0,66.3 -53.7,120 -120,120 z m 92.9,-11.5 c 30.4,-74.7 75.6,-17.5 161.2,-2.9 85.7,14.6 131.1,-13 165.8,-2.4 34.7,10.6 74.4,86 -3.8,192 C 762.4,941 591.7,618.5 591.7,618.5 Z"
     id="path4" /></g>
</svg>
