<?xml version="1.0" encoding="UTF-8" standalone="no"?>
<!-- Svg Vector Icons : http://www.onlinewebfonts.com/icon -->

<svg
   version="1.1"
   x="0px"
   y="0px"
   viewBox="0 0 50 50"
   enable-background="new 0 0 1000 1000"
   xml:space="preserve"
   id="svg8"
   sodipodi:docname="vent-low.svg"
   width="50"
   height="50"
   inkscape:version="1.1.1 (3bf5ae0d25, 2021-09-20)"
   xmlns:inkscape="http://www.inkscape.org/namespaces/inkscape"
   xmlns:sodipodi="http://sodipodi.sourceforge.net/DTD/sodipodi-0.dtd"
   xmlns="http://www.w3.org/2000/svg"
   xmlns:svg="http://www.w3.org/2000/svg"><defs
   id="defs12" /><sodipodi:namedview
   id="namedview10"
   pagecolor="#ffffff"
   bordercolor="#000000"
   borderopacity="0.25"
   inkscape:showpageshadow="2"
   inkscape:pageopacity="0.0"
   inkscape:pagecheckerboard="0"
   inkscape:deskcolor="#d1d1d1"
   showgrid="false"
   inkscape:zoom="11.313709"
   inkscape:cx="34.869203"
   inkscape:cy="26.825863"
   inkscape:window-width="1920"
   inkscape:window-height="991"
   inkscape:window-x="932"
   inkscape:window-y="2151"
   inkscape:window-maximized="1"
   inkscape:current-layer="svg8"
   inkscape:pageshadow="2" />
<metadata
   id="metadata2"> Svg Vector Icons : http://www.onlinewebfonts.com/icon </metadata>

<g
   id="g4544"
   transform="matrix(0.05026096,0,0,0.05380722,-81.181399,-51.861329)"><path
     d="m 2143.2935,1372.2774 c -84.4128,7.0387 -49.7654,-56.4342 -73.3351,-135.6236 -23.5684,-79.0895 -69.7296,-105.5695 -74.8902,-139.7031 -5.1606,-34.1335 49.2446,-100.87304 184.3235,-81.0923 203.3213,66.965 -28.8366,353.5209 -28.8366,353.5209 z"
     id="path4315"
     sodipodi:nodetypes="ccsccc" /><ellipse
     style="fill:#000000;fill-opacity:1;stroke:#000000;stroke-width:0;stroke-linecap:round;stroke-linejoin:round"
     id="ellipse4317"
     cx="2123.6499"
     cy="1504.9363"
     rx="109.33981"
     ry="115.17126" /><path
     d="m 2212.819,1598.2847 c 36.3263,-76.521 73.7977,-14.6733 154.1084,4.7357 80.2234,19.3598 126.3115,-7.2472 158.4168,5.4407 32.1052,12.688 62.474,93.2599 -22.4973,200.1125 -160.0549,142.1488 -291.1706,-202.5543 -291.1706,-202.5543 z"
     id="path4319"
     sodipodi:nodetypes="ccsccc" /><path
     d="m 1999.0382,1543.0719 c 48.3442,69.555 -23.9475,71.3297 -80.7064,131.3708 -56.6729,59.9899 -56.4925,113.2066 -83.4596,134.759 -26.9671,21.5523 -111.9761,7.8574 -162.4619,-118.9842 -43.7943,-209.5374 320.4843,-151.9815 320.4843,-151.9815 z"
     id="path4321"
     sodipodi:nodetypes="ccsccc" /></g></svg>
