<?xml version="1.0" encoding="UTF-8" standalone="no"?>
<!-- Svg Vector Icons : http://www.onlinewebfonts.com/icon -->

<svg
   version="1.1"
   x="0px"
   y="0px"
   viewBox="0 0 50 50"
   enable-background="new 0 0 1000 1000"
   xml:space="preserve"
   id="svg8"
   sodipodi:docname="vent-mid.svg"
   width="50"
   height="50"
   inkscape:version="1.2.2 (732a01da63, 2022-12-09)"
   xmlns:inkscape="http://www.inkscape.org/namespaces/inkscape"
   xmlns:sodipodi="http://sodipodi.sourceforge.net/DTD/sodipodi-0.dtd"
   xmlns="http://www.w3.org/2000/svg"
   xmlns:svg="http://www.w3.org/2000/svg"><defs
   id="defs12" /><sodipodi:namedview
   id="namedview10"
   pagecolor="#ffffff"
   bordercolor="#000000"
   borderopacity="0.25"
   inkscape:showpageshadow="2"
   inkscape:pageopacity="0.0"
   inkscape:pagecheckerboard="0"
   inkscape:deskcolor="#d1d1d1"
   showgrid="false"
   inkscape:zoom="22.627417"
   inkscape:cx="29.27864"
   inkscape:cy="24.925514"
   inkscape:window-width="3584"
   inkscape:window-height="1906"
   inkscape:window-x="-12"
   inkscape:window-y="-12"
   inkscape:window-maximized="1"
   inkscape:current-layer="svg8" />
<metadata
   id="metadata2"> Svg Vector Icons : http://www.onlinewebfonts.com/icon </metadata>

<g
   id="g4134"
   transform="matrix(0.05112699,0,0,0.0499485,-91.405983,6.7331487)"><path
     d="m 2298.1534,233.17228 c -84.4127,7.03865 -49.7653,-56.43421 -73.335,-135.62366 -23.5684,-79.08945 -69.7296,-105.56953 -74.8902,-139.703063 -5.1607,-34.133529 49.2445,-100.873057 184.3235,-81.092317 203.3212,66.965015 -28.8367,353.52088 -28.8367,353.52088 z"
     id="path4-7"
     sodipodi:nodetypes="ccsccc" /><rect
     style="fill:#ffffff;fill-opacity:0;stroke:#000000;stroke-width:0;stroke-linecap:round;stroke-linejoin:round"
     id="rect1494-0"
     width="285.74136"
     height="373.2132"
     x="2140.0244"
     y="-101.55071"
     transform="rotate(-0.77245419)" /><ellipse
     style="fill:#000000;fill-opacity:1;stroke:#000000;stroke-width:0;stroke-linecap:round;stroke-linejoin:round"
     id="path2400-1"
     cx="2278.51"
     cy="365.83112"
     rx="109.33981"
     ry="115.17126" /><path
     d="m 2269.5152,499.37052 c 84.4127,-7.03865 49.7653,56.43421 73.335,135.62366 23.5684,79.08945 69.7296,105.56953 74.8902,139.70306 5.1607,34.13353 -49.2445,100.87303 -184.3235,81.09232 -203.3212,-66.96502 28.8367,-353.52088 28.8367,-353.52088 z"
     id="path3460-9"
     sodipodi:nodetypes="ccsccc" /><rect
     style="fill:#ffffff;fill-opacity:0;stroke:#000000;stroke-width:0;stroke-linecap:round;stroke-linejoin:round"
     id="rect3462-6"
     width="285.74136"
     height="373.2132"
     x="-2417.3535"
     y="-895.6051"
     transform="rotate(179.22755)" /><path
     d="m 2150.0558,350.90086 c 7.0386,84.41278 -56.4342,49.76534 -135.6237,73.33507 -79.0894,23.56839 -105.5695,69.72957 -139.703,74.89021 -34.1336,5.16064 -100.8731,-49.24456 -81.0924,-184.3235 66.9651,-203.3213 353.5209,28.8366 353.5209,28.8366 z"
     id="path3472-1"
     sodipodi:nodetypes="ccsccc" /><path
     d="m 2407.9851,381.20791 c -7.0386,-84.41278 56.4343,-49.76534 135.6237,-73.33507 79.0895,-23.56839 105.5695,-69.72957 139.7031,-74.89021 34.1335,-5.16064 100.873,49.24456 81.0923,184.32351 -66.965,203.32126 -353.5209,-28.83664 -353.5209,-28.83664 z"
     id="path3466-0"
     sodipodi:nodetypes="ccsccc" /></g></svg>
