<svg width="18" height="16" viewBox="0 0 18 16" fill="none" xmlns="http://www.w3.org/2000/svg">
<path d="M1.58132 4.30707C3.18562 3.16115 4.40573 2.88017 5.4201 2.92966C6.48537 2.98162 7.44304 3.39565 8.59394 3.90715L8.65611 3.93479C9.74169 4.41749 11.0135 4.98299 12.4826 5.05466C14.0307 5.13017 15.6856 4.66115 17.5813 3.30708C18.0307 2.98607 18.1348 2.36152 17.8138 1.91211C17.4928 1.4627 16.8683 1.3586 16.4188 1.67961C14.8145 2.82554 13.5944 3.10651 12.5801 3.05703C11.5148 3.00507 10.5571 2.59104 9.40622 2.07953L9.34405 2.05189C8.25847 1.5692 6.98665 1.00369 5.51755 0.932031C3.96943 0.856512 2.31454 1.32554 0.41884 2.67961C-0.0305729 3.00062 -0.134665 3.62517 0.186344 4.07458C0.507353 4.52399 1.1319 4.62808 1.58132 4.30707Z" fill="black"/>
<path d="M5.4201 7.92966C4.40573 7.88017 3.18562 8.16115 1.58132 9.30707C1.1319 9.62808 0.507353 9.52399 0.186344 9.07458C-0.134665 8.62517 -0.0305729 8.00062 0.41884 7.67961C2.31454 6.32554 3.96943 5.85651 5.51755 5.93203C6.98665 6.00369 8.25847 6.5692 9.34405 7.05189L9.40622 7.07953C10.5571 7.59104 11.5148 8.00507 12.5801 8.05703C13.5944 8.10651 14.8145 7.82554 16.4188 6.67961C16.8683 6.3586 17.4928 6.4627 17.8138 6.91211C18.1348 7.36152 18.0307 7.98607 17.5813 8.30708C15.6856 9.66115 14.0307 10.1302 12.4826 10.0547C11.0135 9.98299 9.74169 9.41749 8.65611 8.93479L8.59394 8.90715C7.44304 8.39565 6.48537 7.98162 5.4201 7.92966Z" fill="black"/>
<path d="M5.4201 12.9297C4.40573 12.8802 3.18562 13.1611 1.58132 14.3071C1.1319 14.6281 0.507353 14.524 0.186344 14.0746C-0.134665 13.6252 -0.0305729 13.0006 0.41884 12.6796C2.31454 11.3255 3.96943 10.8565 5.51755 10.932C6.98665 11.0037 8.25847 11.5692 9.34405 12.0519L9.40622 12.0795C10.5571 12.591 11.5148 13.0051 12.5801 13.057C13.5944 13.1065 14.8145 12.8255 16.4188 11.6796C16.8683 11.3586 17.4928 11.4627 17.8138 11.9121C18.1348 12.3615 18.0307 12.9861 17.5813 13.3071C15.6856 14.6611 14.0307 15.1302 12.4826 15.0547C11.0135 14.983 9.74169 14.4175 8.65611 13.9348L8.59394 13.9072C7.44304 13.3956 6.48537 12.9816 5.4201 12.9297Z" fill="black"/>
</svg>
