<svg width="21" height="22" viewBox="0 0 21 22" fill="none" xmlns="http://www.w3.org/2000/svg">
<path d="M15 2C14.261 2 13.6143 2.40032 13.267 3.00073C12.9904 3.47879 12.3787 3.64215 11.9006 3.36561C11.4226 3.08906 11.2592 2.47733 11.5357 1.99927C12.2259 0.80628 13.5182 0 15 0C17.2091 0 19 1.79086 19 4C19 6.20914 17.2091 8 15 8H1C0.447715 8 0 7.55228 0 7C0 6.44772 0.447715 6 1 6H15C16.1046 6 17 5.10457 17 4C17 2.89543 16.1046 2 15 2Z" fill="black"/>
<path d="M9 20C8.48712 20 8.02142 19.8083 7.66691 19.491C7.25539 19.1226 6.62319 19.1577 6.25487 19.5692C5.88654 19.9807 5.92156 20.6129 6.33309 20.9812C7.0401 21.614 7.97617 22 9 22C11.2091 22 13 20.2091 13 18C13 15.7909 11.2091 14 9 14H1C0.447715 14 0 14.4477 0 15C0 15.5523 0.447715 16 1 16H9C10.1046 16 11 16.8954 11 18C11 19.1046 10.1046 20 9 20Z" fill="black"/>
<path d="M1 10C0.447715 10 0 10.4477 0 11C0 11.5523 0.447715 12 1 12H17C18.1046 12 19 12.8954 19 14C19 15.1046 18.1046 16 17 16C16.4477 16 16 16.4477 16 17C16 17.5523 16.4477 18 17 18C19.2091 18 21 16.2091 21 14C21 11.7909 19.2091 10 17 10H1Z" fill="black"/>
</svg>
