<svg width="9" height="28" viewBox="0 0 9 28" fill="none" xmlns="http://www.w3.org/2000/svg">
<path d="M8.1 24.1761C8.1 24.6628 8.02 25.1195 7.86 25.5461C7.7 25.9661 7.46333 26.3328 7.15 26.6461C6.83667 26.9528 6.45333 27.1961 6 27.3761C5.54 27.5561 5.01 27.6461 4.41 27.6461C3.81 27.6461 3.28333 27.5561 2.83 27.3761C2.37 27.1961 1.98667 26.9528 1.68 26.6461C1.36667 26.3328 1.13333 25.9661 0.98 25.5461C0.82 25.1195 0.74 24.6628 0.74 24.1761C0.74 23.6828 0.82 23.2261 0.98 22.8061C1.13333 22.3795 1.36333 22.0095 1.67 21.6961C1.97667 21.3828 2.36 21.1395 2.82 20.9661C3.27333 20.7861 3.8 20.6961 4.4 20.6961C4.99333 20.6961 5.52 20.7861 5.98 20.9661C6.44 21.1395 6.82667 21.3828 7.14 21.6961C7.45333 22.0095 7.69333 22.3795 7.86 22.8061C8.02 23.2261 8.1 23.6828 8.1 24.1761ZM7.06 24.1761C7.06 23.8628 7.01333 23.5728 6.92 23.3061C6.82667 23.0328 6.67667 22.7995 6.47 22.6061C6.25667 22.4061 5.98333 22.2495 5.65 22.1361C5.31 22.0228 4.9 21.9661 4.42 21.9661C3.94 21.9661 3.53333 22.0228 3.2 22.1361C2.86667 22.2495 2.59667 22.4061 2.39 22.6061C2.17667 22.7995 2.02333 23.0328 1.93 23.3061C1.83 23.5728 1.78 23.8628 1.78 24.1761C1.78 24.4895 1.83 24.7795 1.93 25.0461C2.02333 25.3128 2.17667 25.5461 2.39 25.7461C2.59667 25.9395 2.86667 26.0928 3.2 26.2061C3.53333 26.3195 3.94 26.3761 4.42 26.3761C4.9 26.3761 5.31 26.3195 5.65 26.2061C5.98333 26.0928 6.25667 25.9395 6.47 25.7461C6.67667 25.5461 6.82667 25.3128 6.92 25.0461C7.01333 24.7795 7.06 24.4895 7.06 24.1761ZM1.88 16.1618L8 16.1618L8 17.3818L1.88 17.3818L1.88 19.5618L0.83 19.5618L0.829999 13.9918L1.88 13.9918L1.88 16.1618ZM0.829999 12.4673L0.829999 10.1273C0.829999 9.26064 1.00333 8.5873 1.35 8.1073C1.69667 7.6273 2.24667 7.3873 3 7.3873C3.41333 7.3873 3.77 7.45397 4.07 7.5873C4.37 7.72064 4.61667 7.91064 4.81 8.1573C5.00333 8.3973 5.14667 8.69064 5.24 9.0373C5.32667 9.3773 5.37 9.7573 5.37 10.1773L5.37 11.2573L8 11.2573L8 12.4673L0.829999 12.4673ZM1.88 11.2573L4.33 11.2573L4.33 10.1773C4.33 9.69064 4.23333 9.3073 4.04 9.0273C3.84667 8.7473 3.51333 8.6073 3.04 8.6073C2.63333 8.6073 2.34 8.7373 2.16 8.9973C1.97333 9.25064 1.88 9.6273 1.88 10.1273L1.88 11.2573ZM5.02 3.8659L5.02 4.5659L8 4.5659L8 5.7759L0.829999 5.7759L0.829999 4.5659L3.98 4.5659L3.98 3.8459L0.829999 1.5259L0.829999 0.225898L4.41 2.8859L8 0.115898L8 1.5759L5.02 3.8659Z" fill="black" fill-opacity="0.6"/>
</svg>
