<?xml version="1.0" encoding="UTF-8" standalone="no"?>
<svg
   width="50"
   height="140"
   viewBox="0 0 50 140"
   fill="none"
   version="1.1"
   id="svg4"
   sodipodi:docname="Закр.svg"
   inkscape:version="1.2.2 (732a01da63, 2022-12-09)"
   xmlns:inkscape="http://www.inkscape.org/namespaces/inkscape"
   xmlns:sodipodi="http://sodipodi.sourceforge.net/DTD/sodipodi-0.dtd"
   xmlns="http://www.w3.org/2000/svg"
   xmlns:svg="http://www.w3.org/2000/svg">
  <defs
     id="defs8" />
  <sodipodi:namedview
     id="namedview6"
     pagecolor="#ffffff"
     bordercolor="#000000"
     borderopacity="0.25"
     inkscape:showpageshadow="2"
     inkscape:pageopacity="0.0"
     inkscape:pagecheckerboard="true"
     inkscape:deskcolor="#d1d1d1"
     showgrid="true"
     inkscape:zoom="5.6568543"
     inkscape:cx="30.228815"
     inkscape:cy="52.679455"
     inkscape:window-width="3584"
     inkscape:window-height="1906"
     inkscape:window-x="-12"
     inkscape:window-y="-12"
     inkscape:window-maximized="1"
     inkscape:current-layer="svg4">
    <inkscape:grid
       type="xygrid"
       id="grid291" />
  </sodipodi:namedview>
  <path
     style="fill:#000000;fill-opacity:1;stroke:#000000;stroke-width:1.99814;stroke-linecap:butt;stroke-linejoin:round;stroke-miterlimit:61.5;stroke-dasharray:none;stroke-opacity:1"
     d="m 19.994222,70.038136 c 10.008592,0 10.008592,0 10.008592,0"
     id="path421" />
  <path
     style="fill:#000000;fill-opacity:1;stroke:#000000;stroke-width:2.61735;stroke-linecap:round;stroke-linejoin:round;stroke-miterlimit:61.5;stroke-opacity:1"
     d="M 24.999036,4.0205279 C 37.146991,16.168483 37.146991,16.168483 37.146991,16.168483"
     id="path1013" />
  <path
     style="fill:#000000;fill-opacity:1;stroke:#000000;stroke-width:2.61735;stroke-linecap:round;stroke-linejoin:round;stroke-miterlimit:61.5;stroke-opacity:1"
     d="M 24.998,4.0205279 C 12.850045,16.168483 12.850045,16.168483 12.850045,16.168483"
     id="path1015" />
  <path
     style="fill:#000000;fill-opacity:1;stroke:#000000;stroke-width:2.61735;stroke-linecap:round;stroke-linejoin:round;stroke-miterlimit:61.5;stroke-opacity:1"
     d="M 24.999036,12.020528 C 37.146991,24.168483 37.146991,24.168483 37.146991,24.168483"
     id="path1017" />
  <path
     style="fill:#000000;fill-opacity:1;stroke:#000000;stroke-width:2.61735;stroke-linecap:round;stroke-linejoin:round;stroke-miterlimit:61.5;stroke-opacity:1"
     d="M 24.998,12.020528 C 12.850045,24.168483 12.850045,24.168483 12.850045,24.168483"
     id="path1019" />
  <path
     style="fill:#000000;fill-opacity:1;stroke:#000000;stroke-width:2.61735;stroke-linecap:round;stroke-linejoin:round;stroke-miterlimit:61.5;stroke-opacity:1"
     d="M 24.999036,135.9927 C 37.146991,123.84475 37.146991,123.84475 37.146991,123.84475"
     id="path1029" />
  <path
     style="fill:#000000;fill-opacity:1;stroke:#000000;stroke-width:2.61735;stroke-linecap:round;stroke-linejoin:round;stroke-miterlimit:61.5;stroke-opacity:1"
     d="M 24.998,135.9927 C 12.850045,123.84475 12.850045,123.84475 12.850045,123.84475"
     id="path1031" />
  <path
     style="fill:#000000;fill-opacity:1;stroke:#000000;stroke-width:2.61735;stroke-linecap:round;stroke-linejoin:round;stroke-miterlimit:61.5;stroke-opacity:1"
     d="M 24.999036,127.9927 C 37.146991,115.84475 37.146991,115.84475 37.146991,115.84475"
     id="path1033" />
  <path
     style="fill:#000000;fill-opacity:1;stroke:#000000;stroke-width:2.61735;stroke-linecap:round;stroke-linejoin:round;stroke-miterlimit:61.5;stroke-opacity:1"
     d="M 24.998,127.9927 C 12.850045,115.84475 12.850045,115.84475 12.850045,115.84475"
     id="path1035" />
  <path
     style="fill:#000000;fill-opacity:1;stroke:#000000;stroke-width:1.99814;stroke-linecap:butt;stroke-linejoin:round;stroke-miterlimit:61.5;stroke-dasharray:none;stroke-opacity:1"
     d="m 19.994222,66.038136 c 10.008592,0 10.008592,0 10.008592,0"
     id="path1771" />
  <path
     style="fill:#000000;fill-opacity:1;stroke:#000000;stroke-width:1.99814;stroke-linecap:butt;stroke-linejoin:round;stroke-miterlimit:61.5;stroke-dasharray:none;stroke-opacity:1"
     d="m 19.994222,62.038136 c 10.008592,0 10.008592,0 10.008592,0"
     id="path1773" />
  <path
     style="fill:#000000;fill-opacity:1;stroke:#000000;stroke-width:1.99814;stroke-linecap:butt;stroke-linejoin:round;stroke-miterlimit:61.5;stroke-dasharray:none;stroke-opacity:1"
     d="m 19.994222,58.038136 c 10.008592,0 10.008592,0 10.008592,0"
     id="path1775" />
  <path
     style="fill:#000000;fill-opacity:1;stroke:#000000;stroke-width:1.99814;stroke-linecap:butt;stroke-linejoin:round;stroke-miterlimit:61.5;stroke-dasharray:none;stroke-opacity:1"
     d="m 19.994222,54.038136 c 10.008592,0 10.008592,0 10.008592,0"
     id="path1777" />
  <path
     style="fill:#000000;fill-opacity:1;stroke:#000000;stroke-width:1.99814;stroke-linecap:butt;stroke-linejoin:round;stroke-miterlimit:61.5;stroke-dasharray:none;stroke-opacity:1"
     d="m 19.994222,50.038136 c 10.008592,0 10.008592,0 10.008592,0"
     id="path1779" />
  <path
     style="fill:#000000;fill-opacity:1;stroke:#000000;stroke-width:1.99814;stroke-linecap:butt;stroke-linejoin:round;stroke-miterlimit:61.5;stroke-dasharray:none;stroke-opacity:1"
     d="m 19.994222,46.038136 c 10.008592,0 10.008592,0 10.008592,0"
     id="path1781" />
  <path
     style="fill:#000000;fill-opacity:1;stroke:#000000;stroke-width:1.99814;stroke-linecap:butt;stroke-linejoin:round;stroke-miterlimit:61.5;stroke-dasharray:none;stroke-opacity:1"
     d="m 19.994222,42.038136 c 10.008592,0 10.008592,0 10.008592,0"
     id="path1783" />
  <path
     style="fill:#000000;fill-opacity:1;stroke:#000000;stroke-width:1.99814;stroke-linecap:butt;stroke-linejoin:round;stroke-miterlimit:61.5;stroke-dasharray:none;stroke-opacity:1"
     d="m 19.994222,98.038136 c 10.008592,0 10.008592,0 10.008592,0"
     id="path1785" />
  <path
     style="fill:#000000;fill-opacity:1;stroke:#000000;stroke-width:1.99814;stroke-linecap:butt;stroke-linejoin:round;stroke-miterlimit:61.5;stroke-dasharray:none;stroke-opacity:1"
     d="m 19.994222,94.038136 c 10.008592,0 10.008592,0 10.008592,0"
     id="path1787" />
  <path
     style="fill:#000000;fill-opacity:1;stroke:#000000;stroke-width:1.99814;stroke-linecap:butt;stroke-linejoin:round;stroke-miterlimit:61.5;stroke-dasharray:none;stroke-opacity:1"
     d="m 19.994222,90.038136 c 10.008592,0 10.008592,0 10.008592,0"
     id="path1789" />
  <path
     style="fill:#000000;fill-opacity:1;stroke:#000000;stroke-width:1.99814;stroke-linecap:butt;stroke-linejoin:round;stroke-miterlimit:61.5;stroke-dasharray:none;stroke-opacity:1"
     d="m 19.994222,86.038136 c 10.008592,0 10.008592,0 10.008592,0"
     id="path1791" />
  <path
     style="fill:#000000;fill-opacity:1;stroke:#000000;stroke-width:1.99814;stroke-linecap:butt;stroke-linejoin:round;stroke-miterlimit:61.5;stroke-dasharray:none;stroke-opacity:1"
     d="m 19.994222,82.038136 c 10.008592,0 10.008592,0 10.008592,0"
     id="path1793" />
  <path
     style="fill:#000000;fill-opacity:1;stroke:#000000;stroke-width:1.99814;stroke-linecap:butt;stroke-linejoin:round;stroke-miterlimit:61.5;stroke-dasharray:none;stroke-opacity:1"
     d="m 19.994222,78.038136 c 10.008592,0 10.008592,0 10.008592,0"
     id="path1795" />
  <path
     style="fill:#000000;fill-opacity:1;stroke:#000000;stroke-width:1.99814;stroke-linecap:butt;stroke-linejoin:round;stroke-miterlimit:61.5;stroke-dasharray:none;stroke-opacity:1"
     d="m 19.994222,74.038136 c 10.008592,0 10.008592,0 10.008592,0"
     id="path1797" />
  <path
     style="fill:#000000;fill-opacity:1;stroke:#000000;stroke-width:1.99814;stroke-linecap:butt;stroke-linejoin:round;stroke-miterlimit:61.5;stroke-dasharray:none;stroke-opacity:1"
     d="m 19.994222,38.038136 c 10.008592,0 10.008592,0 10.008592,0"
     id="path1799" />
  <path
     style="fill:#000000;fill-opacity:1;stroke:#000000;stroke-width:1.99814;stroke-linecap:butt;stroke-linejoin:round;stroke-miterlimit:61.5;stroke-dasharray:none;stroke-opacity:1"
     d="m 19.994222,34.038136 c 10.008592,0 10.008592,0 10.008592,0"
     id="path1801" />
  <path
     style="fill:#000000;fill-opacity:1;stroke:#000000;stroke-width:1.99814;stroke-linecap:butt;stroke-linejoin:round;stroke-miterlimit:61.5;stroke-dasharray:none;stroke-opacity:1"
     d="m 19.994222,106.03814 c 10.008592,0 10.008592,0 10.008592,0"
     id="path1803" />
  <path
     style="fill:#000000;fill-opacity:1;stroke:#000000;stroke-width:1.99814;stroke-linecap:butt;stroke-linejoin:round;stroke-miterlimit:61.5;stroke-dasharray:none;stroke-opacity:1"
     d="m 19.994222,102.03814 c 10.008592,0 10.008592,0 10.008592,0"
     id="path1805" />
</svg>
